/* XPM */
static char * close_pressed_xpm[] = {
"25 25 3 1",
" 	c grey15",
".	c grey",
"+	c black",
"                         ",
"                         ",
"                         ",
"                         ",
"                         ",
"                         ",
"                         ",
"                         ",
"                         ",
"         ..+   +..       ",
"         ...+ +...       ",
"         +...+...+       ",
"          +.....+        ",
"           +...+         ",
"          +.....+        ",
"         +...+...+       ",
"         ...+ +...       ",
"         ..+   +..       ",
"                         ",
"                         ",
"                         ",
"                         ",
"                         ",
"                         ",
"                         "};
