/* XPM */
static char * maximize_pressed_xpm[] = {
"25 25 3 1",
" 	c grey15",
".	c black",
"+	c grey",
"                         ",
"                         ",
"                         ",
"                         ",
"                         ",
"                         ",
"                         ",
"                         ",
"         .........       ",
"         +++++++++       ",
"         +++++++++       ",
"         ++     ++       ",
"         ++     ++       ",
"         ++     ++       ",
"         ++     ++       ",
"         ++.....++       ",
"         +++++++++       ",
"         +++++++++       ",
"                         ",
"                         ",
"                         ",
"                         ",
"                         ",
"                         ",
"                         "};
