/* XPM */
static char * gimp_icon_xpm[] = {
"48 48 511 2",
"  	c None",
". 	c #2E3436",
"+ 	c #2F3436",
"@ 	c #3B3B38",
"# 	c #44443F",
"$ 	c #44433D",
"% 	c #383B39",
"& 	c #58554B",
"* 	c #494741",
"= 	c #363939",
"- 	c #59554C",
"; 	c #555147",
"> 	c #4D4A42",
", 	c #3E403D",
"' 	c #454642",
") 	c #3B3D3B",
"! 	c #5D594E",
"~ 	c #534E43",
"{ 	c #4E493E",
"] 	c #4E4B43",
"^ 	c #484944",
"/ 	c #7C7768",
"( 	c #414340",
"_ 	c #303536",
": 	c #4E4C45",
"< 	c #635E52",
"[ 	c #555043",
"} 	c #484235",
"| 	c #4F4B3F",
"1 	c #4F4C43",
"2 	c #4A4A46",
"3 	c #847E6E",
"4 	c #817C6C",
"5 	c #585955",
"6 	c #404444",
"7 	c #313637",
"8 	c #4D4D46",
"9 	c #656054",
"0 	c #645F52",
"a 	c #534E40",
"b 	c #4C4638",
"c 	c #494436",
"d 	c #504C40",
"e 	c #504C43",
"f 	c #4C4E49",
"g 	c #87867D",
"h 	c #8A8B86",
"i 	c #A6A7A4",
"j 	c #939590",
"k 	c #7A7C78",
"l 	c #505352",
"m 	c #888A85",
"n 	c #9A9C98",
"o 	c #BEBFBC",
"p 	c #BEBFBD",
"q 	c #9FA19D",
"r 	c #858782",
"s 	c #4D504F",
"t 	c #333838",
"u 	c #4C4C46",
"v 	c #5F5C51",
"w 	c #6E695B",
"x 	c #6B6557",
"y 	c #5E5849",
"z 	c #534D3E",
"A 	c #504A3C",
"B 	c #4D483A",
"C 	c #4B4537",
"D 	c #524C40",
"E 	c #504D43",
"F 	c #7D807B",
"G 	c #B8B9B5",
"H 	c #EDEDEB",
"I 	c #FAFAFA",
"J 	c #F4F4F3",
"K 	c #CDCDCA",
"L 	c #8B8D88",
"M 	c #666761",
"N 	c #828480",
"O 	c #C4C5C1",
"P 	c #EFEFED",
"Q 	c #F9F9F8",
"R 	c #F9F9F9",
"S 	c #F0F0EE",
"T 	c #CCCCC9",
"U 	c #7D786B",
"V 	c #746E5E",
"W 	c #6B6555",
"X 	c #615A4A",
"Y 	c #5A5343",
"Z 	c #575141",
"` 	c #544E3F",
" .	c #524C3D",
"..	c #4F493A",
"+.	c #524D41",
"@.	c #514D44",
"#.	c #000000",
"$.	c #AAABA7",
"%.	c #E3E3DF",
"&.	c #CDCDCC",
"*.	c #C8C8C6",
"=.	c #C4C5C0",
"-.	c #B9BAB6",
";.	c #E3E3E0",
">.	c #ECECEA",
",.	c #F3F3F2",
"'.	c #E6E6E4",
").	c #D7D7D5",
"!.	c #E2E2DF",
"~.	c #C0C1BC",
"{.	c #81817A",
"].	c #635C4A",
"^.	c #615A48",
"/.	c #5E5746",
"(.	c #5B5544",
"_.	c #585242",
":.	c #554F3F",
"<.	c #534D3D",
"[.	c #504A3B",
"}.	c #4D4739",
"|.	c #534E41",
"1.	c #121314",
"2.	c #45494A",
"3.	c #515657",
"4.	c #404445",
"5.	c #131515",
"6.	c #C6C6C1",
"7.	c #DDDDD8",
"8.	c #E8E8E5",
"9.	c #FFFFFF",
"0.	c #505151",
"a.	c #92928E",
"b.	c #8C8E89",
"c.	c #D3D4CE",
"d.	c #DEDEDA",
"e.	c #E7E7E4",
"f.	c #FDFDFC",
"g.	c #B6B6B6",
"h.	c #555554",
"i.	c #C9C9C5",
"j.	c #91938E",
"k.	c #6A6455",
"l.	c #625B49",
"m.	c #5F5846",
"n.	c #5C5544",
"o.	c #595342",
"p.	c #565040",
"q.	c #504B3C",
"r.	c #4E483A",
"s.	c #565145",
"t.	c #494840",
"u.	c #090909",
"v.	c #7B7E7F",
"w.	c #E2E3E3",
"x.	c #E7E8E8",
"y.	c #888B8D",
"z.	c #5F6466",
"A.	c #333637",
"B.	c #80827D",
"C.	c #C8C8C2",
"D.	c #D4D4CE",
"E.	c #C2C2C1",
"F.	c #FEFEFE",
"G.	c #686A6B",
"H.	c #3F403D",
"I.	c #999A95",
"J.	c #D0D0CA",
"K.	c #D7D7D2",
"L.	c #D5D5D2",
"M.	c #E8E8E8",
"N.	c #212627",
"O.	c #72726F",
"P.	c #9FA09A",
"Q.	c #706D60",
"R.	c #5F5947",
"S.	c #5C5645",
"T.	c #575040",
"U.	c #544E3E",
"V.	c #514B3C",
"W.	c #575246",
"X.	c #46453E",
"Y.	c #3B3D3E",
"Z.	c #CFD0D0",
"`.	c #DDDEDE",
" +	c #444B4D",
".+	c #505556",
"++	c #2D3031",
"@+	c #313230",
"#+	c #B4B5AE",
"$+	c #CACAC3",
"%+	c #676763",
"&+	c #A3A4A4",
"*+	c #8C8D8D",
"=+	c #2C3234",
"-+	c #3E3F3D",
";+	c #959791",
">+	c #C9C9C2",
",+	c #CFCFC9",
"'+	c #969692",
")+	c #ECECEC",
"!+	c #B1B1B2",
"~+	c #2D3335",
"{+	c #0B0B0B",
"]+	c #999B95",
"^+	c #6F6B5D",
"/+	c #5A5548",
"(+	c #3F3F3B",
"_+	c #4B4E4F",
":+	c #D9DADA",
"<+	c #E8E9E9",
"[+	c #3C4447",
"}+	c #32383A",
"|+	c #3D4142",
"1+	c #161818",
"2+	c #71716C",
"3+	c #BEBEB6",
"4+	c #A1A19A",
"5+	c #080A0B",
"6+	c #1B1F20",
"7+	c #0E1112",
"8+	c #60625E",
"9+	c #BCBCB4",
"0+	c #C6C6BF",
"a+	c #989893",
"b+	c #171B1C",
"c+	c #323739",
"d+	c #24292A",
"e+	c #575753",
"f+	c #8A8C86",
"g+	c #686150",
"h+	c #5F5847",
"i+	c #5C574B",
"j+	c #353837",
"k+	c #404344",
"l+	c #A9AAAB",
"m+	c #B9BABB",
"n+	c #394144",
"o+	c #292C2E",
"p+	c #282A2B",
"q+	c #171816",
"r+	c #91928C",
"s+	c #AFAFA7",
"t+	c #A9A9A1",
"u+	c #8A8A84",
"v+	c #82837E",
"w+	c #878781",
"x+	c #838176",
"y+	c #9A9B95",
"z+	c #BDBDB5",
"A+	c #63635F",
"B+	c #101314",
"C+	c #161A1B",
"D+	c #353532",
"E+	c #848580",
"F+	c #7B7A71",
"G+	c #645D4A",
"H+	c #5E5846",
"I+	c #595242",
"J+	c #514C3E",
"K+	c #585347",
"L+	c #242626",
"M+	c #535759",
"N+	c #8C8E8F",
"O+	c #9A9B9C",
"P+	c #3A4245",
"Q+	c #32393B",
"R+	c #272C2E",
"S+	c #1A1D1F",
"T+	c #252728",
"U+	c #0B0D0E",
"V+	c #66655D",
"W+	c #84847D",
"X+	c #868780",
"Y+	c #817F74",
"Z+	c #79725D",
"`+	c #78705A",
" @	c #84847B",
".@	c #979992",
"+@	c #B1B2A9",
"@@	c #BABAB1",
"#@	c #A1A199",
"$@	c #92928B",
"%@	c #93948E",
"&@	c #67614F",
"*@	c #635C49",
"=@	c #605947",
"-@	c #5D5745",
";@	c #5B5443",
">@	c #585241",
",@	c #4F4A3B",
"'@	c #555042",
")@	c #4D4B42",
"!@	c #424647",
"~@	c #363B3C",
"{@	c #282D2F",
"]@	c #1F2324",
"^@	c #15191A",
"/@	c #1C1F1F",
"(@	c #111414",
"_@	c #484335",
":@	c #716954",
"<@	c #726A55",
"[@	c #736B56",
"}@	c #746C56",
"|@	c #746C57",
"1@	c #736C56",
"2@	c #7C796D",
"3@	c #858680",
"4@	c #8B8C87",
"5@	c #858781",
"6@	c #79776C",
"7@	c #68614F",
"8@	c #4E493A",
"9@	c #595446",
"0@	c #40403C",
"a@	c #1A1B1C",
"b@	c #383B3C",
"c@	c #232829",
"d@	c #202426",
"e@	c #1C2021",
"f@	c #16191A",
"g@	c #141718",
"h@	c #171A1B",
"i@	c #0F1112",
"j@	c #454032",
"k@	c #6D6651",
"l@	c #6E6752",
"m@	c #706853",
"n@	c #706954",
"o@	c #6F6752",
"p@	c #6D6754",
"q@	c #6C6653",
"r@	c #68614D",
"s@	c #665F4C",
"t@	c #5A5443",
"u@	c #585141",
"v@	c #1B1C1D",
"w@	c #191C1D",
"x@	c #090B0C",
"y@	c #4D4839",
"z@	c #6A624F",
"A@	c #6B634F",
"B@	c #6C6450",
"C@	c #6C6550",
"D@	c #6C6551",
"E@	c #6B6450",
"F@	c #69614E",
"G@	c #67604D",
"H@	c #655E4B",
"I@	c #4A4537",
"J@	c #14120D",
"K@	c #564F40",
"L@	c #565043",
"M@	c #47463E",
"N@	c #101111",
"O@	c #1C1F20",
"P@	c #181B1C",
"Q@	c #111415",
"R@	c #100E0A",
"S@	c #68614E",
"T@	c #605948",
"U@	c #3E392D",
"V@	c #2E1A09",
"W@	c #3E2003",
"X@	c #201308",
"Y@	c #565146",
"Z@	c #323637",
"`@	c #010101",
" #	c #080A0A",
".#	c #0C0E0F",
"+#	c #090B0B",
"@#	c #151310",
"##	c #5C574A",
"$#	c #655E4D",
"%#	c #645D4B",
"&#	c #5D5645",
"*#	c #474235",
"=#	c #363228",
"-#	c #0A0907",
";#	c #341A02",
">#	c #9B550B",
",#	c #9C560B",
"'#	c #703E08",
")#	c #603D1E",
"!#	c #584430",
"~#	c #4E4739",
"{#	c #575245",
"]#	c #40413B",
"^#	c #2A2F31",
"/#	c #0F1213",
"(#	c #2F3334",
"_#	c #5C594F",
":#	c #746E60",
"<#	c #6C6656",
"[#	c #615A49",
"}#	c #605A48",
"|#	c #464134",
"1#	c #3A362B",
"2#	c #3B372B",
"3#	c #544432",
"4#	c #653C15",
"5#	c #99540B",
"6#	c #CC7010",
"7#	c #BE690F",
"8#	c #91500A",
"9#	c #663C14",
"0#	c #5C422C",
"a#	c #353332",
"b#	c #2B3133",
"c#	c #3D3F3C",
"d#	c #615E52",
"e#	c #716B5D",
"f#	c #696354",
"g#	c #5C5644",
"h#	c #5B5444",
"i#	c #534B3B",
"j#	c #5E4025",
"k#	c #713E08",
"l#	c #A45A0D",
"m#	c #CD7110",
"n#	c #A45A0C",
"o#	c #6D3C07",
"p#	c #5D3306",
"q#	c #5B584E",
"r#	c #6C6658",
"s#	c #615C4C",
"t#	c #5B5545",
"u#	c #514C3D",
"v#	c #4F493B",
"w#	c #594B3B",
"x#	c #643E1D",
"y#	c #7A4309",
"z#	c #A55B0D",
"A#	c #C86E10",
"B#	c #D17311",
"C#	c #A75C0C",
"D#	c #715746",
"E#	c #81837F",
"F#	c #1F2325",
"G#	c #2A3032",
"H#	c #333737",
"I#	c #4A4A43",
"J#	c #5B584D",
"K#	c #666153",
"L#	c #655F52",
"M#	c #605B4D",
"N#	c #5D5749",
"O#	c #595345",
"P#	c #585244",
"Q#	c #575143",
"R#	c #565144",
"S#	c #585346",
"T#	c #49473F",
"U#	c #343837",
"V#	c #4D3321",
"W#	c #653807",
"X#	c #7B4409",
"Y#	c #9F580C",
"Z#	c #C06F2A",
"`#	c #908C85",
" $	c #E2E3E2",
".$	c #AAABA8",
"+$	c #252A2C",
"@$	c #2B3032",
"#$	c #3D3E3B",
"$$	c #474741",
"%$	c #4F4C44",
"&$	c #514E45",
"*$	c #524F45",
"=$	c #504D44",
"-$	c #3C3D3A",
";$	c #2F3536",
">$	c #2A3031",
",$	c #1D2123",
"'$	c #593005",
")$	c #796557",
"!$	c #9E9F9C",
"~$	c #F1F1F0",
"{$	c #C5C5C4",
"]$	c #8F908D",
"^$	c #474747",
"/$	c #626262",
"($	c #1E2223",
"_$	c #24292B",
":$	c #282E30",
"<$	c #292E30",
"[$	c #878984",
"}$	c #B6B7B4",
"|$	c #E3E3E3",
"1$	c #808080",
"2$	c #8F8F8F",
"3$	c #A2A2A2",
"4$	c #616161",
"5$	c #7F817D",
"6$	c #575757",
"7$	c #828282",
"8$	c #989898",
"9$	c #525252",
"0$	c #373737",
"a$	c #585858",
"b$	c #5B5B5B",
"c$	c #484848",
"d$	c #333333",
"e$	c #2E2E2E",
"f$	c #3D3D3D",
"g$	c #2B2B2B",
"h$	c #181818",
"i$	c #050505",
"j$	c #2F2F2F",
"k$	c #1E1E1E",
"l$	c #0E0E0E",
"                                                                                                ",
"                                                                                                ",
"                                                                                                ",
"                                                                                                ",
"                                                                                                ",
"                                                                                                ",
"                                                                                                ",
"                                                                                                ",
"                                                                          .                     ",
"                                                                        . .                     ",
"                                                                        + @ .                   ",
"                                                                      . # $ .                   ",
"                    .                                                 % & * .                   ",
"                    . .                                             = - ; > .                   ",
"                    , '                                         . ) ! ~ { ] .                   ",
"                    ^ / ( .                                 . _ : < [ } | 1 .                   ",
"                    2 3 4 5 6                           . 7 8 9 0 a b c d e .                   ",
"                    f g h i j k l .   m n o p q r s t u v w x y z A B C D E .                   ",
"                    F G H I J K L M N O P Q R S T L U V W X Y Z `  ...b +.@..                   ",
"        #.          $.%.H S &.*.=.m -.;.>.,.'.).!.~.{.].^./.(._.:.<.[.}.|.1 .                   ",
"    1.2.3.4.5.#.  m 6.7.8.9.I 0.a.b.c.d.e.f.9.g.h.i.j.k.l.m.n.o.p.z q.r.s.t..                   ",
"  u.v.w.x.y.z.A.#.B.C.D.E.9.F.G.H.I.J.K.L.9.9.M.N.O.P.Q.l.R.S.o.T.U.V.r.W.X..                   ",
"  Y.Z.9.9.`. +.+++@+#+$+%+&+*+=+-+;+>+,+'+)+9.!+~+{+]+^+l.R.S.Y T.U.V.r./+(+                    ",
"  _+:+9.9.<+[+}+|+1+2+3+4+5+6+7+8+m 9+0+a+b+c+. d+e+f+g+l.h+S.o.p.U.V.r.i+j+                    ",
"  k+l+9.9.m+n+=+o+p+q+r+s+t+u+v+w+x+y+z+z+A+B+C+D+E+F+G+^.H+n.I+p.z A J+K+.                     ",
"  L+M+N+O+P+Q+R+S+T+U+V+W+m X+Y+Z+`+ @.@+@@@#@$@%@{.&@*@=@-@;@>@:. .,@'@)@.                     ",
"  #.!@~@. ~+{@]@^@/@(@_@:@<@[@}@|@}@1@2@3@4@L 5@6@7@G+^.m.n.o.T.U.V.8@9@0@                      ",
"    a@b@c@d@e@f@g@h@i@j@k@l@m@m@n@m@m@o@k@p@q@r@s@G+-@c o.t@u@:. .[.A K+_                       ",
"    #.v@p+w@g@g@g@g@x@y@z@A@B@C@D@C@B@E@z@F@G@H@].^.h+I@J@b K@z V.r.L@M@=+                      ",
"      #.N@O@P@g@g@Q@R@=@s@G@r@S@S@S@r@G@s@H@G+l.T@Y U@V@W@X@ .V...A Y@Z@                        ",
"        #.`@ #.#+#@###$#l.].G+%#%#G+=@&#o.p.<.*#=#-#;#>#,#'#)#!#~#{#]#^#                        ",
"              #./#(#_#:#<#[#=@}#}#}#=@&#p.}.|#1#2#U@3#4#5#6#7#8#9#0#a#                          ",
"                    b#c#d#e#f#T@S.S.g#n.h#t@o.u@p.:.z i#j#k#l#m#m#n#o#p#                        ",
"                      N.=+c#q#r#f#s#t#u@Z p.:.U.z u#[.8@v#w#x#y#z#A#B#C#D#E#                    ",
"                          F#G#H#I#J#K#L#M#N#O#P#Q#'@R#S#W.T#U#V#W#X#Y#Z#`# $.$                  ",
"                                +$@$+ #$$$%$&$*$=$)@X.-$;$>$,$    '$W#)$!$)+~${$]$^$/$          ",
"                                      ($_$:$<$G#^#<$R+N.                [$b.}$|$1$2$3$4$        ",
"                                                                              5$6$7$8$9$0$      ",
"                                                                                a$b$c$d$e$      ",
"                                                                                  c$f$g$h$i$    ",
"                                                                                    j$k$l$`@    ",
"                                                                                          #.    ",
"                                                                                                ",
"                                                                                                ",
"                                                                                                ",
"                                                                                                ",
"                                                                                                ",
"                                                                                                "};
