/* XPM */
static char * irssi_48x48_xpm[] = {
"48 48 173 2",
"  	c None",
". 	c #F25F00",
"+ 	c #EE5B00",
"@ 	c #ED5B00",
"# 	c #EA5700",
"$ 	c #E95600",
"% 	c #E65300",
"& 	c #E65200",
"* 	c #E24F00",
"= 	c #E24E00",
"- 	c #DF4A00",
"; 	c #DB4600",
"> 	c #DB4500",
", 	c #D63F00",
"' 	c #D53F00",
") 	c #D03900",
"! 	c #D03800",
"~ 	c #CE3600",
"{ 	c #CB3100",
"] 	c #CA2F00",
"^ 	c #C92D00",
"/ 	c #C82B00",
"( 	c #C62900",
"_ 	c #C42400",
": 	c #C32200",
"< 	c #C22000",
"[ 	c #C11D00",
"} 	c #C11E00",
"| 	c #BF1700",
"1 	c #BE1300",
"2 	c #BD1000",
"3 	c #BD0E00",
"4 	c #BC0A00",
"5 	c #BB0700",
"6 	c #BC0B00",
"7 	c #BC0D00",
"8 	c #BF1600",
"9 	c #BF1800",
"0 	c #B90300",
"a 	c #B90200",
"b 	c #B80200",
"c 	c #B70200",
"d 	c #BA0500",
"e 	c #B50200",
"f 	c #B40300",
"g 	c #B30300",
"h 	c #B20400",
"i 	c #B50300",
"j 	c #B60200",
"k 	c #B00500",
"l 	c #AF0500",
"m 	c #AE0500",
"n 	c #AE0600",
"o 	c #AD0500",
"p 	c #AD0600",
"q 	c #B10400",
"r 	c #AB0600",
"s 	c #AA0700",
"t 	c #A90700",
"u 	c #A80700",
"v 	c #A80800",
"w 	c #AC0600",
"x 	c #A70800",
"y 	c #A60900",
"z 	c #A50900",
"A 	c #A40900",
"B 	c #A30900",
"C 	c #A60800",
"D 	c #A20900",
"E 	c #A10A00",
"F 	c #A00A00",
"G 	c #9F0A00",
"H 	c #9E0B00",
"I 	c #9D0B00",
"J 	c #9C0B00",
"K 	c #9B0B00",
"L 	c #9B0C00",
"M 	c #9A0C00",
"N 	c #990C00",
"O 	c #980C00",
"P 	c #970C00",
"Q 	c #960C00",
"R 	c #950C00",
"S 	c #940C00",
"T 	c #930C00",
"U 	c #920D00",
"V 	c #910D00",
"W 	c #900D00",
"X 	c #930D00",
"Y 	c #8F0D00",
"Z 	c #8E0E00",
"` 	c #8D0E00",
" .	c #8C0E00",
"..	c #8B0E00",
"+.	c #8A0E00",
"@.	c #890E00",
"#.	c #880E00",
"$.	c #870E00",
"%.	c #8E0D00",
"&.	c #860E00",
"*.	c #850E00",
"=.	c #840E00",
"-.	c #830E00",
";.	c #820F00",
">.	c #800F00",
",.	c #7F0F00",
"'.	c #7E0F00",
").	c #810F00",
"!.	c #7C0F00",
"~.	c #7B0F00",
"{.	c #7A0F00",
"].	c #780F00",
"^.	c #770F00",
"/.	c #761000",
"(.	c #751000",
"_.	c #790F00",
":.	c #771000",
"<.	c #741000",
"[.	c #731000",
"}.	c #721000",
"|.	c #820E00",
"1.	c #7D0F00",
"2.	c #711000",
"3.	c #701000",
"4.	c #6F1000",
"5.	c #6E0F00",
"6.	c #6F0F00",
"7.	c #6D0F00",
"8.	c #6A0F00",
"9.	c #690F00",
"0.	c #6C0F00",
"a.	c #660F00",
"b.	c #650F00",
"c.	c #670F00",
"d.	c #680F00",
"e.	c #610F00",
"f.	c #640F00",
"g.	c #620F00",
"h.	c #5D0F00",
"i.	c #600F00",
"j.	c #6B0F00",
"k.	c #630F00",
"l.	c #5F0F00",
"m.	c #5C0F00",
"n.	c #5A0F00",
"o.	c #590F00",
"p.	c #5E0F00",
"q.	c #570F00",
"r.	c #551000",
"s.	c #561000",
"t.	c #580F00",
"u.	c #5B0F00",
"v.	c #541000",
"w.	c #521000",
"x.	c #4F1000",
"y.	c #511000",
"z.	c #571000",
"A.	c #4E1000",
"B.	c #4B1000",
"C.	c #480F00",
"D.	c #450F00",
"E.	c #470F00",
"F.	c #4A1000",
"G.	c #440F00",
"H.	c #400F00",
"I.	c #3D0F00",
"J.	c #3F0F00",
"K.	c #430F00",
"L.	c #3C0F00",
"M.	c #380F00",
"N.	c #340E00",
"O.	c #320E00",
"P.	c #370E00",
"                                                                                                ",
"                                                                                                ",
"                                                                                                ",
"                                            .                                                   ",
"                                          + @                                                   ",
"                                          # $                                                   ",
"                                          % &                                                   ",
"                                          * = =                                                 ",
"                                          - - -                                                 ",
"                                          ; ; ; >                                               ",
"                                            , , , '                                             ",
"                                            ) ! ! )                                             ",
"                              ! ~           { { { { {                                           ",
"                                ] ^ /       ( ( ( ( (                                           ",
"                                  _ : < [   } [ [ [ } }     _                                   ",
"                                  | 1 2 3 4 5 4 4 4 6 7     8 9                                 ",
"                                  0 a b b c c c c c c b     0 d 5                               ",
"                                  e f g g h h h h h h g     i j c                               ",
"                                  k l m n o p p p p o n     k q h                               ",
"                                  r s t t u v v v v u t     r w p                               ",
"                        p         x y z A A A B B A A A z z C x u                               ",
"                        u x       D E F F G G G G G G F F E D B A                               ",
"                        A B E   H H I J K L L M M L L K J I H G F                               ",
"                        F G I J M N O P Q Q R R R R R Q P O N M L       D B                     ",
"                        L M O P R S T U V V V W W V V V U X S R Q       H G                     ",
"                        P R T U V W Y Z `  . . . . . .` Z Z Y V U     P N L                     ",
"                        U V Y Z  ...+.@.@.#.#.$.#.#.#.#.@.+... .Z %.W U S Q                     ",
"              M         %.` ..@.#.$.&.*.=.=.=.-.-.=.=.=.*.&.$.#.@... .%.W U                     ",
"              Q T V     +.@.$.&.=.-.;.>.>.,.'.'.'.  ,.,.>.;.-.=.*.$.#.+. .%.                    ",
"              U W ` ..  $.*.-.).,.'.!.!.~.  {.{.{.    ~.~.!.'.,.).-.=.&.#.+.    U               ",
"                 .+.$.*.-.).'.!.~.{.].^./.    (.(.    /.^.]._.~.!.'.>.-.*.$.   .                ",
"                @.&.=.).'.!.{.].:.(.<.[.}.      }.    }.[.  (.:.].{.!.'.).-.&.#.                ",
"                *.|.>.1.{.]./.<.[.2.3.4.5.            5.    2.[.<./.].{.!.,.|.*.                ",
"                ;.'.~._.:.(.}.3.6.7.  8.9.            9.  0.7.6.3.}.<./._.~.'.).                ",
"                  ~.].(.[.2.6.7.8.9.  a.b.                c.d.8.7.5.3.[.(.].{.1.                ",
"                  ^.(.}.4.7.8.d.a.b.    e.                  f.a.  8.7.4.}.<.:.                  ",
"                    2.6.0.9.  b.g.      h.                  i.    a.d.j.5.2.<.                  ",
"                    5.j.d.b.k.                                    k.b.c.8.5.3.                  ",
"                    j.c.f.g.l.                                    l.g.f.c.8.                    ",
"                      f.g.l.m.n.                                o.m.p.e.f.c.                    ",
"                        p.m.o.q.r.                              s.t.u.p.e.                      ",
"                        m.t.s.v.w.x.                          y.v.s.t.u.                        ",
"                          z.v.y.A.B.                          A.y.v.s.                          ",
"                            y.A.B.C.D.                      E.F.A.y.                            ",
"                                E.G.H.I.                  J.K.E.                                ",
"                                    L.M.N.O.            P.L.                                    ",
"                                                                                                ",
"                                                                                                "};
