/* XPM */
static char * irssi_icon_xpm[] = {
"48 48 282 2",
"  	c None",
". 	c #377797",
"+ 	c #387797",
"@ 	c #377696",
"# 	c #377697",
"$ 	c #387696",
"% 	c #377596",
"& 	c #377595",
"* 	c #377494",
"= 	c #377495",
"- 	c #367394",
"; 	c #367293",
"> 	c #377394",
", 	c #377393",
"' 	c #367192",
") 	c #367292",
"! 	c #357091",
"~ 	c #367091",
"{ 	c #356F90",
"] 	c #366F91",
"^ 	c #356E90",
"/ 	c #366F90",
"( 	c #356E8F",
"_ 	c #356D8F",
": 	c #8CA0B9",
"< 	c #CCD2E7",
"[ 	c #BAC3D9",
"} 	c #A6B4CB",
"| 	c #A5B3CA",
"1 	c #356D8E",
"2 	c #99A9C1",
"3 	c #E0E3F7",
"4 	c #B6C0D6",
"5 	c #B5BFD5",
"6 	c #346C8D",
"7 	c #356C8E",
"8 	c #346B8D",
"9 	c #356B8D",
"0 	c #98A8C0",
"a 	c #DEE2F6",
"b 	c #CAD1E6",
"c 	c #B4BFD5",
"d 	c #B4BED4",
"e 	c #346A8C",
"f 	c #346B8C",
"g 	c #96A7BF",
"h 	c #DCE1F5",
"i 	c #C8D0E5",
"j 	c #B2BED4",
"k 	c #B2BDD3",
"l 	c #C0CADF",
"m 	c #C6CFE3",
"n 	c #CED6EA",
"o 	c #DAE0F3",
"p 	c #D6DCF0",
"q 	c #D2D9ED",
"r 	c #447293",
"s 	c #34698B",
"t 	c #D1D9ED",
"u 	c #D7DEF2",
"v 	c #477393",
"w 	c #33688A",
"x 	c #34688A",
"y 	c #ABBAD0",
"z 	c #B0BED4",
"A 	c #C0CBE0",
"B 	c #D5DDF1",
"C 	c #CED7EB",
"D 	c #C7D2E6",
"E 	c #C7D1E6",
"F 	c #416F90",
"G 	c #33678A",
"H 	c #34678A",
"I 	c #90A3BB",
"J 	c #D2DCEF",
"K 	c #BFCBE0",
"L 	c #AAB9CF",
"M 	c #336789",
"N 	c #336689",
"O 	c #8EA2BA",
"P 	c #D0DBEE",
"Q 	c #BDCADF",
"R 	c #A9B9CF",
"S 	c #A8B8CE",
"T 	c #336688",
"U 	c #8DA1B9",
"V 	c #CDD9ED",
"W 	c #BBC9DE",
"X 	c #A7B8CD",
"Y 	c #A6B7CC",
"Z 	c #5E7E99",
"` 	c #97AABA",
" .	c #AABAC7",
"..	c #B9C7D2",
"+.	c #B1C0CC",
"@.	c #A3B4C2",
"#.	c #7791A6",
"$.	c #336588",
"%.	c #336587",
"&.	c #8BA0B8",
"*.	c #CBD8EC",
"=.	c #B9C8DC",
"-.	c #A5B7CC",
";.	c #A4B6CB",
">.	c #346688",
",.	c #9BAEBD",
"'.	c #D7E3EA",
").	c #F1FAFE",
"!.	c #E6F1F6",
"~.	c #B6C5D1",
"{.	c #577995",
"].	c #326487",
"^.	c #336487",
"/.	c #8099B1",
"(.	c #849CB4",
"_.	c #A4B6CC",
":.	c #C9D7EA",
"<.	c #BECDE1",
"[.	c #B2C3D7",
"}.	c #BBCADC",
"|.	c #D9E5ED",
"1.	c #EFF9FE",
"2.	c #E9F4FA",
"3.	c #A5B7C5",
"4.	c #326486",
"5.	c #326386",
"6.	c #C0D1E4",
"7.	c #C6D6E9",
"8.	c #D4E2F1",
"9.	c #EBF6FD",
"0.	c #ECF7FE",
"a.	c #C3D2DD",
"b.	c #416B8B",
"c.	c #326385",
"d.	c #326285",
"e.	c #BECFE3",
"f.	c #C4D5E8",
"g.	c #D1E0EF",
"h.	c #E9F6FE",
"i.	c #EAF6FE",
"j.	c #C6D5E1",
"k.	c #336386",
"l.	c #316184",
"m.	c #5F7E9B",
"n.	c #61809C",
"o.	c #92A8BF",
"p.	c #C2D4E7",
"q.	c #B4C7DB",
"r.	c #839BB2",
"s.	c #E5F3FD",
"t.	c #E7F5FE",
"u.	c #ABBDCD",
"v.	c #316083",
"w.	c #326184",
"x.	c #859CB4",
"y.	c #B1C4D8",
"z.	c #C9DAE7",
"A.	c #E4F3FE",
"B.	c #E2F1FC",
"C.	c #728CA4",
"D.	c #315F83",
"E.	c #326083",
"F.	c #7E97AD",
"G.	c #E2F2FE",
"H.	c #DCEDF9",
"I.	c #315F82",
"J.	c #BBCEDF",
"K.	c #DFF0FE",
"L.	c #315E81",
"M.	c #315E82",
"N.	c #859CB3",
"O.	c #325F82",
"P.	c #D7EAF8",
"Q.	c #DDEFFD",
"R.	c #D2E6F5",
"S.	c #DBEEFC",
"T.	c #D2E6F4",
"U.	c #D5E8F7",
"V.	c #D8EBFA",
"W.	c #305D81",
"X.	c #315D81",
"Y.	c #426889",
"Z.	c #557694",
"`.	c #4F7190",
" +	c #67849E",
".+	c #DAEDFD",
"++	c #D9ECFC",
"@+	c #829EB2",
"#+	c #316683",
"$+	c #547B93",
"%+	c #C6DAEB",
"&+	c #D7EBFA",
"*+	c #809CB0",
"=+	c #587D95",
"-+	c #C8DDED",
";+	c #9EB6C8",
">+	c #326783",
",+	c #43708B",
"'+	c #B5CBDC",
")+	c #305C80",
"!+	c #315D80",
"~+	c #758FA8",
"{+	c #D7ECFD",
"]+	c #B4CADC",
"^+	c #306180",
"/+	c #7B97AD",
"(+	c #B1C7DA",
"_+	c #7F9AAF",
":+	c #C9DFF0",
"<+	c #4D728D",
"[+	c #305B7F",
"}+	c #7A95AE",
"|+	c #D5EBFD",
"1+	c #A6BDD1",
"2+	c #2F5C7C",
"3+	c #66839D",
"4+	c #9FB7CC",
"5+	c #6D88A1",
"6+	c #BCD3E6",
"7+	c #D4EAFC",
"8+	c #305A7E",
"9+	c #6E8AA4",
"0+	c #D2E9FD",
"a+	c #C1D8EC",
"b+	c #32597C",
"c+	c #2E5679",
"d+	c #94ABC2",
"e+	c #BED5E9",
"f+	c #2F577A",
"g+	c #98AFC6",
"h+	c #CDE4F8",
"i+	c #4B6B89",
"j+	c #738DA6",
"k+	c #2F5A7E",
"l+	c #517190",
"m+	c #D0E8FD",
"n+	c #B2CAE0",
"o+	c #8198B2",
"p+	c #99B0C8",
"q+	c #CDE5FA",
"r+	c #B1C8DE",
"s+	c #9BB3CA",
"t+	c #CEE5FB",
"u+	c #BFD6EC",
"v+	c #849CB5",
"w+	c #8EA5BE",
"x+	c #C7DFF5",
"y+	c #2F597D",
"z+	c #30597D",
"A+	c #C1DAF1",
"B+	c #CDE6FD",
"C+	c #2F587C",
"D+	c #2F587D",
"E+	c #9BB4CE",
"F+	c #CBE5FD",
"G+	c #2F577C",
"H+	c #537392",
"I+	c #C6E1FB",
"J+	c #C8E3FD",
"K+	c #2F567B",
"L+	c #2F577B",
"M+	c #96B2CD",
"N+	c #C5E2FC",
"O+	c #2E567A",
"P+	c #3D6082",
"Q+	c #B1CEE9",
"R+	c #C3E1FC",
"S+	c #2E5579",
"T+	c #2E557A",
"U+	c #2F557A",
"V+	c #517090",
"W+	c #B5D4F0",
"X+	c #C0DFFC",
"Y+	c #2E5479",
"Z+	c #BEDEFC",
"`+	c #2E5378",
" @	c #BBDCFC",
".@	c #B9DBFC",
"+@	c #B8DBFC",
"@@	c #B6DAFC",
"#@	c #B6D9FC",
"$@	c #B3D8FC",
"                                      . . . + + + + + . +                                       ",
"                              @ # # # . + + + + + + + + + + # # @                               ",
"                          @ @ @ @ @ @ @ $ $ $ @ $ @ @ @ @ @ @ @ @ @ %                           ",
"                      & & & & & & & & & % % % % % % % % % % & & & & & & &                       ",
"                  * & & & & & & & & & & & & & & & & & & & = * * * * * * * * *                   ",
"                - - * * * * * * * * * * * * * * * * * * * * * * * * * * * * * *                 ",
"              ; ; ; > > > > > > > > > > > > > > > > > > > > > > > > > > > > > , ;               ",
"            ' ) ) ) ; ; ; ; ; ; ; ; ; ; ; ; ; ; ; ; ; ; ; ; ; ; ; ; ; ; ; ; ; ; ' '             ",
"          ' ' ' ' ' ' ' ' ' ' ' ' ' ' ' ' ' ' ' ' ' ' ' ' ' ' ' ' ' ' ' ' ' ' ' ' ' '           ",
"        ! ! ! ! ! ! ~ ~ ~ ~ ~ ~ ~ ~ ~ ~ ~ ~ ~ ~ ~ ~ ~ ~ ~ ~ ~ ~ ~ ~ ~ ~ ~ ~ ~ ~ ! ! ! !         ",
"      { { { { { { { ~ ~ ~ ~ ~ ~ ~ ~ ~ ~ ~ ~ ~ ~ ~ ~ ~ ~ ~ ~ ~ ~ ~ ~ ~ ~ ~ ~ ~ ] { { { { {       ",
"      ^ ^ ^ ^ ^ ^ ^ / { / { { { { { { { { { { / { / / / / / / / / / / { / { { { ( ( ( ( (       ",
"    _ _ _ _ _ _ _ _ ( ( ( ( ( ( ( ( ( : < [ ( ( ( ( } < | ( ( ( ( ( ( ( ( ( ( ( _ _ _ _ _ _     ",
"    1 1 1 1 1 1 1 1 _ _ _ _ _ _ _ _ _ 2 3 < _ _ _ _ 4 3 5 _ _ _ _ _ _ _ _ _ _ 1 1 1 1 1 1 1     ",
"  6 6 6 6 6 6 6 6 6 7 7 7 7 7 7 7 7 7 2 3 < 7 7 7 7 4 3 5 7 7 7 7 7 7 7 7 7 7 7 6 6 6 6 6 6 6   ",
"  8 8 8 8 8 8 8 8 8 9 9 9 9 9 9 9 9 9 0 a b 9 9 9 9 c a d 9 9 9 9 9 9 9 9 9 9 9 8 8 8 8 8 8 8   ",
"  e e e e e e e e e f f f f f f f f f g h i f f f f j h k f f f f f f f f f f f e e e e e e e   ",
"e e e e e e e e e e e e e e e l m m m n o p m m m m q o q m m m m r e e e e e e s s s s s s s s ",
"s s s s s s s s s s s s s s s t u u u u u u u u u u u u u u u u u v s s s s s s w w w w w w w w ",
"x x x x x x x x x x x x x x x y z z z A B C z z z z D B E z z z z F x x x x x x w w w w w w w w ",
"G G G G H G G H G G G H G H H H H H H I J K H G H G y J L G G H G G G H G H H M M M M M M M M M ",
"M N N N M N N M N N N M M M M M N M M O P Q N N N N R P S N N N N N N N N N N N T T T T T T T T ",
"T T T T T T T T T T T T T T T T T T T U V W T T T T X V Y T T T Z `  ...+.@.#.T $.$.$.$.$.$.$.$.",
"%.%.%.%.%.%.%.%.%.%.%.%.%.%.%.%.%.%.%.&.*.=.%.%.%.%.-.*.;.>.,.'.).).).).).).).!.~.{.].].].].].].",
"^.^.^.^.^.^.^.^.^.^.^.^.^.^.^./.(.(.(._.:.<.(.(.(.(.[.:.}.|.1.1.1.1.1.1.1.1.1.1.1.2.3.4.4.4.4.4.",
"5.5.5.5.5.5.5.5.5.5.5.5.5.5.5.6.7.7.7.7.7.7.7.7.7.7.7.8.9.0.0.0.0.0.0.0.0.0.0.0.0.0.0.a.b.c.c.c.",
"  d.d.d.d.d.d.d.d.d.d.d.d.d.d.e.f.f.f.f.f.f.f.f.f.f.g.h.i.i.i.i.i.i.i.i.i.i.i.i.i.i.i.i.j.k.d.  ",
"  l.l.l.l.l.l.l.l.l.d.d.d.d.d.m.n.n.n.o.p.q.n.n.n.r.s.t.t.t.t.t.t.t.t.t.t.t.t.t.t.t.t.t.t.u.l.  ",
"  v.v.v.v.v.v.v.v.v.w.w.w.w.w.w.w.w.w.x.p.y.w.w.w.z.A.A.A.A.A.A.A.A.A.A.A.A.A.A.A.A.A.A.A.B.C.  ",
"    D.D.D.D.D.D.D.D.E.v.E.v.v.v.v.v.v.x.p.y.v.E.F.G.G.G.G.G.G.G.G.G.G.G.G.G.G.G.G.G.G.G.G.G.H.  ",
"    I.I.I.I.I.I.I.I.I.I.I.I.I.I.I.I.I.x.p.y.I.I.J.K.K.K.K.K.K.K.K.K.K.K.K.K.K.K.K.K.K.K.K.K.K.  ",
"      L.L.L.L.L.L.L.M.M.M.M.M.M.M.M.M.N.p.y.M.O.P.Q.Q.Q.Q.Q.R.S.Q.Q.Q.T.S.Q.Q.Q.U.V.Q.Q.Q.Q.Q.  ",
"      W.W.W.W.W.W.W.X.X.X.X.X.X.X.X.X.Y.Z.`.X. +.+.+.+.+++@+#+$+%+&+*+#+=+-+.+;+>+,+'+.+.+.+.+.+",
"        )+)+)+)+)+)+!+!+!+!+!+!+!+!+!+!+!+!+!+~+{+{+{+{+]+^+^+^+/+(+^+^+^+_+:+^+^+^+<+{+{+{+{+{+",
"          [+[+[+[+[+)+)+)+)+)+)+)+)+)+)+)+)+)+}+|+|+|+|+1+2+2+2+3+4+2+2+2+5+6+2+2+2+2+7+|+|+|+|+",
"          [+8+8+8+8+[+[+[+[+[+[+[+[+[+[+[+[+[+9+0+0+0+0+a+b+c+c+d+e+f+c+c+g+h+i+c+c+j+0+0+0+0+0+",
"            k+k+k+k+8+8+8+8+8+8+8+8+8+8+8+8+8+l+m+m+m+m+m+n+o+p+q+m+r+o+s+t+m+u+v+w+x+m+m+m+m+  ",
"            y+y+y+y+z+z+z+z+z+z+z+z+z+z+z+z+z+z+A+B+B+B+B+B+B+B+B+B+B+B+B+B+B+B+B+B+B+B+B+B+B+  ",
"            C+C+C+C+D+z+D+z+z+z+z+z+z+z+z+z+z+D+E+F+F+F+F+F+F+F+F+F+F+F+F+F+F+F+F+F+F+F+F+F+F+  ",
"            G+G+G+G+C+C+C+C+C+C+C+C+C+C+C+C+C+C+H+I+J+J+J+J+J+J+J+J+J+J+J+J+J+J+J+J+J+J+J+J+    ",
"            K+K+K+K+L+L+L+L+L+L+L+L+L+L+L+L+L+L+L+M+N+N+N+N+N+N+N+N+N+N+N+N+N+N+N+N+N+N+N+N+    ",
"            O+O+O+O+K+K+K+K+K+K+K+K+K+K+K+K+K+K+K+P+Q+R+R+R+R+R+R+R+R+R+R+R+R+R+R+R+R+R+R+      ",
"          S+S+S+S+S+S+S+S+S+      T+S+T+U+U+U+U+U+U+V+W+X+X+X+X+X+X+X+X+X+X+X+X+X+X+X+X+X+      ",
"          Y+Y+Y+Y+Y+Y+Y+Y+                    Y+Y+      Z+Z+Z+Z+Z+Z+Z+Z+Z+Z+Z+Z+Z+Z+Z+Z+Z+      ",
"          `+`+`+`+`+`+                                       @ @ @ @ @ @ @ @ @ @ @ @ @ @ @      ",
"          `+`+`+`+                                              .@.@+@+@+@+@.@.@.@+@+@+@+@      ",
"          `+`+                                                                      @@#@#@      ",
"                                                                                        $@      "};
