/* XPM */
static char * iconbar_unfocus_xpm[] = {
"240 25 349 2",
"  	c #121212",
". 	c #131313",
"+ 	c #161516",
"@ 	c #171817",
"# 	c #1A1A1B",
"$ 	c #1D1D1C",
"% 	c #1F1E1E",
"& 	c #212121",
"* 	c #232323",
"= 	c #262625",
"- 	c #282828",
"; 	c #2B2A2A",
"> 	c #2D2C2C",
", 	c #2F2F2F",
"' 	c #313131",
") 	c #333334",
"! 	c #363636",
"~ 	c #383838",
"{ 	c #3A3B3B",
"] 	c #3C3D3D",
"^ 	c #3F3F3F",
"/ 	c #424141",
"( 	c #444344",
"_ 	c #464646",
": 	c #484848",
"< 	c #4B4A4B",
"[ 	c #4D4D4D",
"} 	c #4F4F4F",
"| 	c #515251",
"1 	c #545354",
"2 	c #565656",
"3 	c #595959",
"4 	c #5B5B5C",
"5 	c #5D5D5E",
"6 	c #606060",
"7 	c #626262",
"8 	c #646565",
"9 	c #676767",
"0 	c #696969",
"a 	c #6B6C6B",
"b 	c #6E6E6E",
"c 	c #707070",
"d 	c #727272",
"e 	c #747575",
"f 	c #777777",
"g 	c #797A7A",
"h 	c #7C7B7C",
"i 	c #7D7E7E",
"j 	c #808181",
"k 	c #828383",
"l 	c #858585",
"m 	c #878787",
"n 	c #8A8A89",
"o 	c #8C8C8C",
"p 	c #8E8E8E",
"q 	c #919090",
"r 	c #939293",
"s 	c #959595",
"t 	c #979798",
"u 	c #999A9A",
"v 	c #151616",
"w 	c #181718",
"x 	c #1C1C1C",
"y 	c #1E1F1F",
"z 	c #232424",
"A 	c #262526",
"B 	c #2D2D2D",
"C 	c #343333",
"D 	c #3B3A3A",
"E 	c #3D3D3C",
"F 	c #434444",
"G 	c #484849",
"H 	c #4B4B4B",
"I 	c #515151",
"J 	c #545453",
"K 	c #575656",
"L 	c #5B5C5C",
"M 	c #5D5E5D",
"N 	c #656564",
"O 	c #666766",
"P 	c #6A696A",
"Q 	c #6B6B6B",
"R 	c #717070",
"S 	c #737273",
"T 	c #7A7979",
"U 	c #7C7C7C",
"V 	c #7E7E7E",
"W 	c #808080",
"X 	c #838283",
"Y 	c #89898A",
"Z 	c #8B8C8C",
"` 	c #8E8E8F",
" .	c #919190",
"..	c #939393",
"+.	c #979897",
"@.	c #151515",
"#.	c #181818",
"$.	c #1A1B1A",
"%.	c #1C1D1D",
"&.	c #1F1F1F",
"*.	c #242423",
"=.	c #252525",
"-.	c #2A2A2A",
";.	c #2C2C2D",
">.	c #313231",
",.	c #343434",
"'.	c #363635",
").	c #3D3D3D",
"!.	c #414141",
"~.	c #4A4B4A",
"{.	c #4D4D4C",
"].	c #545454",
"^.	c #565657",
"/.	c #5D5E5E",
"(.	c #605F60",
"_.	c #656465",
":.	c #69696A",
"<.	c #6B6B6C",
"[.	c #6E6D6E",
"}.	c #727273",
"|.	c #757575",
"1.	c #7A7A7A",
"2.	c #7B7C7C",
"3.	c #838382",
"4.	c #878788",
"5.	c #898989",
"6.	c #939392",
"7.	c #151516",
"8.	c #171818",
"9.	c #1A1A1A",
"0.	c #242424",
"a.	c #262626",
"b.	c #2E2F2F",
"c.	c #333434",
"d.	c #414142",
"e.	c #4A4A4B",
"f.	c #525251",
"g.	c #5C5B5B",
"h.	c #626263",
"i.	c #646465",
"j.	c #676667",
"k.	c #6D6D6E",
"l.	c #737272",
"m.	c #797979",
"n.	c #7C7C7B",
"o.	c #818080",
"p.	c #898A8A",
"q.	c #909090",
"r.	c #929292",
"s.	c #959596",
"t.	c #989897",
"u.	c #9A9A9A",
"v.	c #131413",
"w.	c #181817",
"x.	c #1C1D1C",
"y.	c #1F1E1F",
"z.	c #232324",
"A.	c #252526",
"B.	c #2C2C2C",
"C.	c #323132",
"D.	c #383938",
"E.	c #3A3A3A",
"F.	c #3C3C3D",
"G.	c #414242",
"H.	c #494848",
"I.	c #4B4A4A",
"J.	c #5E5E5E",
"K.	c #636262",
"L.	c #666767",
"M.	c #6D6E6D",
"N.	c #7B7B7C",
"O.	c #808081",
"P.	c #858485",
"Q.	c #8A8A8A",
"R.	c #8B8B8C",
"S.	c #989898",
"T.	c #9A9A99",
"U.	c #242323",
"V.	c #252625",
"W.	c #2A2B2A",
"X.	c #2C2D2C",
"Y.	c #343334",
"Z.	c #353535",
"`.	c #3D3C3D",
" +	c #484948",
".+	c #4F504F",
"++	c #515252",
"@+	c #535453",
"#+	c #5E5E5D",
"$+	c #60605F",
"%+	c #636362",
"&+	c #646564",
"*+	c #737373",
"=+	c #757574",
"-+	c #818181",
";+	c #8C8B8C",
">+	c #99999A",
",+	c #131314",
"'+	c #161515",
")+	c #1D1C1C",
"!+	c #1F1F1E",
"~+	c #2A2A2B",
"{+	c #2C2D2D",
"]+	c #2F2E2F",
"^+	c #4B4B4A",
"/+	c #4D4C4D",
"(+	c #4F4F50",
"_+	c #525151",
":+	c #545353",
"<+	c #5E5D5E",
"[+	c #777778",
"}+	c #797A79",
"|+	c #828283",
"1+	c #8A898A",
"2+	c #959696",
"3+	c #9A999A",
"4+	c #141313",
"5+	c #151615",
"6+	c #252626",
"7+	c #313132",
"8+	c #444443",
"9+	c #525252",
"0+	c #565757",
"a+	c #5B5B5B",
"b+	c #656565",
"c+	c #6C6B6B",
"d+	c #727372",
"e+	c #777877",
"f+	c #7A797A",
"g+	c #7B7B7B",
"h+	c #818081",
"i+	c #838282",
"j+	c #979797",
"k+	c #232423",
"l+	c #272828",
"m+	c #2D2D2C",
"n+	c #363535",
"o+	c #383839",
"p+	c #3B3B3B",
"q+	c #464645",
"r+	c #525152",
"s+	c #747574",
"t+	c #858584",
"u+	c #878887",
"v+	c #898A89",
"w+	c #8E8F8E",
"x+	c #2D2C2D",
"y+	c #363536",
"z+	c #414241",
"A+	c #444444",
"B+	c #4A4A4A",
"C+	c #626362",
"D+	c #737372",
"E+	c #979898",
"F+	c #1C1C1D",
"G+	c #3B3B3A",
"H+	c #3C3C3C",
"I+	c #424142",
"J+	c #444343",
"K+	c #504F4F",
"L+	c #626363",
"M+	c #696A69",
"N+	c #6B6C6C",
"O+	c #7C7B7B",
"P+	c #808180",
"Q+	c #8C8C8B",
"R+	c #929293",
"S+	c #181717",
"T+	c #1E1E1E",
"U+	c #313232",
"V+	c #353636",
"W+	c #3A3A3B",
"X+	c #3F3F40",
"Y+	c #515152",
"Z+	c #565756",
"`+	c #6A6969",
" @	c #6C6C6B",
".@	c #7A7A79",
"+@	c #7B7C7B",
"@@	c #818180",
"#@	c #828382",
"$@	c #929392",
"%@	c #1D1C1D",
"&@	c #3A3B3A",
"*@	c #535454",
"=@	c #5E5D5D",
"-@	c #646464",
";@	c #6D6E6E",
">@	c #79797A",
",@	c #888788",
"'@	c #909191",
")@	c #333333",
"!@	c #4A4B4B",
"~@	c #5F6060",
"{@	c #838383",
"]@	c #848585",
"^@	c #909091",
"/@	c #161615",
"(@	c #242324",
"_@	c #323131",
":@	c #5D5D5D",
"<@	c #999999",
"[@	c #1B1A1A",
"}@	c #1E1E1F",
"|@	c #5A5959",
"1@	c #5C5C5C",
"2@	c #656464",
"3@	c #707071",
"4@	c #828282",
"5@	c #8F8E8F",
"6@	c #919191",
"7@	c #282728",
"8@	c #141413",
"9@	c #333433",
"0@	c #494849",
"a@	c #1D1D1D",
"b@	c #343433",
"c@	c #504F50",
"d@	c #5B5C5B",
"e@	c #787777",
"f@	c #888787",
"g@	c #989797",
"h@	c #3B3A3B",
"i@	c #494948",
"j@	c #6E6E6D",
"k@	c #757474",
"l@	c #7E7D7E",
"m@	c #909190",
"n@	c #959695",
"o@	c #989798",
"p@	c #222121",
"q@	c #282827",
"r@	c #2B2B2A",
"s@	c #5C5C5B",
"t@	c #6C6B6C",
"u@	c #353635",
"v@	c #424241",
"w@	c #676766",
"x@	c #929393",
"y@	c #4F5050",
"z@	c #8F8E8E",
"A@	c #434344",
"B@	c #4C4D4D",
"C@	c #747475",
"D@	c #9A9999",
"E@	c #171718",
"F@	c #2F2F2E",
"G@	c #6C6C6C",
"H@	c #7E7E7D",
"                                                                                                                          . + @ # $ % & * = - ; > , ' ) ! ~ { ] ^ / ( _ : < [ } | 1 2 3 4 5 6 7 8 9 0 a b c d e f g h i j k l m n o p q r s t u u t s r q p o n m l k j i h g f e d c b a 0 9 8 7 6 5 4 3 2 1 | } [ < : _ ( / ^ ] { ~ ! ) ' , > ; - = * & % $ # @ + .                                                                                                                           ",
"                                                                                                                          . v w # x y & z A - ; B , ' C ! ~ D E ^ / F _ G H [ } I J K 3 L M 6 7 N O P Q b R S e f T U V W X l m Y Z `  ...s +.u u +.s .. .` Z Y m l X W V U T f e S R b Q P O N 7 6 M L 3 K J I } [ H G _ F / ^ E D ~ ! C ' , B ; - A z & y x # w v .                                                                                                                           ",
"                                                                                                                          . @.#.$.%.&.& *.=.- -.;., >.,.'.~ { ).^ !.F _ : ~.{.} | ].^.3 L /.(.7 _.9 :.<.[.c }.|.f 1.2.V W 3.l 4.5.o ` q 6.s +.u u +.s 6.q ` o 5.4.l 3.W V 2.1.f |.}.c [.<.:.9 _.7 (./.L 3 ^.].| } {.~.: _ F !.^ ).{ ~ '.,.>., ;.-.- =.*.& &.%.$.#.@..                                                                                                                           ",
"                                                                                                                          . 7.8.9.x &.& 0.a.- -.B b.' c.! ~ D ).^ d.( _ : e.[ } f.].2 3 g.5 6 h.i.j.P Q k.c l.|.f m.n.V o.X l m p.o p q.r.s.t.u.u.t.s.r.q.p o p.m l X o.V n.m.f |.l.c k.Q P j.i.h.6 5 g.3 2 ].f.} [ e.: _ ( d.^ ).D ~ ! c.' b.B -.- a.0.& &.x 9.8.7..                                                                                                                           ",
"                                                                                                                          v.+ w.$.x.y.& z.A.- -.B., C.) '.D.E.F.^ G.( _ H.I.[ } | ].^.3 g.J.(.K.i.L.0 a M.R d |.f m.N.V O.k P.m Q.R.p q 6.s S.T.T.S.s 6.q p R.Q.m P.k O.V N.m.f |.d R M.a 0 L.i.K.(.J.g.3 ^.].| } [ I.H._ ( G.^ F.E.D.'.) C., B.-.- A.z.& y.x.$.w.+ v.                                                                                                                          ",
"                                                                                                                          . v w 9.x y.& U.V.- W.X., >.Y.Z.~ E.`.^ G.( _  +~.[ .+++@+2 3 4 #+$+%+&+O 0 <.b c *+=+f m.U V -+X l m Q.;+p q ..s t >+>+t s ..q p ;+Q.m l X -+V U m.f =+*+c b <.0 O &+%+$+#+4 3 2 @+++.+[ ~. +_ ( G.^ `.E.~ Z.Y.>., X.W.- V.U.& y.x 9.w v .                                                                                                                           ",
"                                                                                                                          ,+'+#.9.)+!+& 0.= - ~+{+]+' c.! ~ E.).^ G.( _ H.^+/+(+_+:+^.3 4 <+6 7 8 j.:.<.b c S |.[+}+2.V O.|+l m 1+Z p q r.2+t.3+3+t.2+r.q p Z 1+m l |+O.V 2.}+[+|.S c b <.:.j.8 7 6 <+4 3 ^.:+_+(+/+^+H._ ( G.^ ).E.~ ! c.' ]+{+~+- = 0.& !+)+9.#.'+,+                                                                                                                          ",
"                                                                                                                          4+5+8.$.x &.& *.6+- -.B ]+7+,.! ~ D ] ^ !.8+_ : H [ } 9+@+0+3 a+M 6 7 b+j.0 c+b R d+|.e+f+g+V h+i+l 4.Y o p q.6.s j+T.T.j+s 6.q.p o Y 4.l i+h+V g+f+e+|.d+R b c+0 j.b+7 6 M a+3 0+@+9+} [ H : _ 8+!.^ ] D ~ ! ,.7+]+B -.- 6+*.& &.x $.8.5+4+                                                                                                                          ",
"                                                                                                                          . + #.$.x y & k+A l+W.m+, ' c.n+o+p+).^ !.8+q+G H [ .+r+].2 3 a+J.(.K.b+9 0 a b R S s+f T 2.V o.|+t+u+v+o w+q ..s +.u u +.s ..q w+o v+u+t+|+o.V 2.T f s+S R b a 0 9 b+K.(.J.a+3 2 ].r+.+[ H G q+8+!.^ ).p+o+n+c.' , m+W.l+A k+& y x $.#.+ .                                                                                                                           ",
"                                                                                                                          . '+w 9.x.% & z.A - ; x+b.>.C y+~ { ).^ z+A+_ H.B+[ } ++J 2 3 g./.6 C+8 9 0 a [.c D+=+f T h V h+3.l 4.1+o w+ .r s E+u.u.E+s r  .w+o 1+4.l 3.h+V h T f =+D+c [.a 0 9 8 C+6 /.g.3 2 J ++} [ B+H._ A+z+^ ).{ ~ y+C >.b.x+; - A z.& % x.9.w '+.                                                                                                                           ",
"                                                                                                                          . 7.#.9.F+&.& 0.A.- ~+B ]+' Y.! ~ G+H+^ I+J+_  +< [ K+_+].K 3 a+#+6 L+N 9 M+N+b c d+|.f m.O+i P+X l m n Q+p q.R+s j+>+>+j+s R+q.p Q+n m l X P+i O+m.f |.d+c b N+M+9 N L+6 #+a+3 K ]._+K+[ <  +_ J+I+^ H+G+~ ! Y.' ]+B ~+- A.0.& &.F+9.#.7..                                                                                                                           ",
"                                                                                                                          v.7.S+$.x T+& 0.6+- ~+B , U+c.V+~ W+] X+z+A+_  +I.[ K+Y+J Z+3 a+5 6 h.&+L.`+ @b c d+e f .@+@V @@#@l m 5.o p q $@s j+u u j+s $@q p o 5.m l #@@@V +@.@f e d+c b  @`+L.&+h.6 5 a+3 Z+J Y+K+[ I. +_ A+z+X+] W+~ V+c.U+, B ~+- 6+0.& T+x $.S+7.v.                                                                                                                          ",
"                                                                                                                          . 5+#.9.%@y & * a.- ; B b.' c.y+~ &@E ^ !.F _  +< [ (+| *@2 3 4 =@$+K.-@9 `+c+;@c D+=+f >@U V W i+l ,@1+o p '@$@s j+T.T.j+s $@'@p o 1+,@l i+W V U >@f =+D+c ;@c+`+9 -@K.$+=@4 3 2 *@| (+[ <  +_ F !.^ E &@~ y+c.' b.B ; - a.* & y %@9.#.5+.                                                                                                                           ",
"                                                                                                                          . '+@ 9.)+&.& k+= - -.x+b.C.)@V+~ &@E ^ z+( _ : !@[ .+r+J 2 3 g.J.~@h.i.9 :.a b c }.|.f }+U V W {@]@m Y o p ^@R+s t 3+3+t s R+^@p o Y m ]@{@W V U }+f |.}.c b a :.9 i.h.~@J.g.3 2 J r+.+[ !@: _ ( z+^ E &@~ V+)@C.b.x+-.- = k+& &.)+9.@ '+.                                                                                                                           ",
"                                                                                                                          ,+/@#.9.x.&.& (@6+- ~+B , _@Y.y+D.D E ^ I+F _ : H [ } r+*@Z+3 a+:@6 C+i.9 :. @;@c S |.f .@+@V P+#@l m n ;+p q ..s S.<@<@S.s ..q p ;+n m l #@P+V +@.@f |.S c ;@ @:.9 i.C+6 :@a+3 Z+*@r+} [ H : _ F I+^ E D D.y+Y._@, B ~+- 6+(@& &.x.9.#./@,+                                                                                                                          ",
"                                                                                                                          . /@#.[@x.}@& z A - -.x+, ' Y.! ~ D ).^ !.( _ H.H [ } f.J 2 |@1@J.~@7 2@9 0 Q b 3@D+|.f m.2.i @@4@l u+1+Q+5@6@6.s j+u.u.j+s 6.6@5@Q+1+u+l 4@@@i 2.m.f |.D+3@b Q 0 9 2@7 ~@J.1@|@2 J f.} [ H H._ ( !.^ ).D ~ ! Y.' , x+-.- A z & }@x.[@#./@.                                                                                                                           ",
"                                                                                                                          . '+w.9.F+y.& * 6+7@-.> , ' )@! ~ G+).^ !.F _ H.< [ } _+].2 3 g.:@6 7 N 9 `+ @b c D+|.f >@h V O.X l m p.;+p '@$@s.t T.T.t s.$@'@p ;+p.m l X O.V h >@f |.D+c b  @`+9 N 7 6 :@g.3 2 ]._+} [ < H._ F !.^ ).G+~ ! )@' , > -.7@6+* & y.F+9.w.'+.                                                                                                                           ",
"                                                                                                                          8@5+#.9.)+y & z.6+- W.;., ' 9@! ~ &@H+^ G.8+_ 0@^+[ } 9+1 2 3 4 J.6 L+i.9 0  @b c d e f f+U V h+k l m 1+Z p '@..s j+u.u.j+s ..'@p Z 1+m l k h+V U f+f e d c b  @0 9 i.L+6 J.4 3 2 1 9+} [ ^+0@_ 8+G.^ H+&@~ ! 9@' , ;.W.- 6+z.& y )+9.#.5+8@                                                                                                                          ",
"                                                                                                                          . 5+#.9.a@y & * A - -.;.b.' b@'.~ G+`.^ d.8+_ : H {.c@Y+].Z+3 d@<+(.7 b+9 0 <.b R D+|.e@m.+@V j {@l f@n ;+` q ..s g@T.T.g@s ..q ` ;+n f@l {@j V +@m.e@|.D+R b <.0 9 b+7 (.<+d@3 Z+].Y+c@{.H : _ 8+d.^ `.G+~ '.b@' b.;.-.- A * & y a@9.#.5+.                                                                                                                           ",
"                                                                                                                          4+@.#.9.)+!+& k+=.- -.X., ' ) ! ~ h@] ^ z+J+_ i@~.[ } f.*@2 3 4 <+6 K._.9 0 N+j@c d+k@f m.O+l@W {@l m 1+o w+m@..n@o@3+3+o@n@..m@w+o 1+m l {@W l@O+m.f k@d+c j@N+0 9 _.K.6 <+4 3 2 *@f.} [ ~.i@_ J+z+^ ] h@~ ! ) ' , X.-.- =.k+& !+)+9.#.@.4+                                                                                                                          ",
"                                                                                                                          . '+#.# x.!+p@0.a.q@r@> b.' )@! ~ D ).^ / 8+_  +~.[ c@_+J K 3 s@<+6 7 b+L.0 t@b c l.|.f m.n.V W 3.l m n o w+^@r.s g@T.T.g@s r.^@w+o n m l 3.W V n.m.f |.l.c b t@0 L.b+7 6 <+s@3 K J _+c@[ ~. +_ 8+/ ^ ).D ~ ! )@' b.> r@q@a.0.p@!+x.# #.'+.                                                                                                                           ",
"                                                                                                                          . 5+8.9.x &.& * 6+- -.x+, ' c.u@o+E.] ^ v@( _ 0@I.{.K+Y+].2 3 d@/.6 7 i.w@`+a [.c d |.f }+U V W |+l m 5.o `  .x@s o@u.u.o@s x@ .` o 5.m l |+W V U }+f |.d c [.a `+w@i.7 6 /.d@3 2 ].Y+K+{.I.0@_ ( v@^ ] E.o+u@c.' , x+-.- 6+* & &.x 9.8.5+.                                                                                                                           ",
"                                                                                                                          . @.w.9.%@&.& z.= - W.;., _@b@V+o+&@`.^ I+A+_ : H [ y@Y+].2 3 a+/.6 %+-@9 M+Q b c d+e f m.n.V O.i+t+f@Q.o z@q r s g@>+>+g@s r q z@o Q.f@t+i+O.V n.m.f e d+c b Q M+9 -@%+6 /.a+3 2 ].Y+y@[ H : _ A+I+^ `.&@o+V+b@_@, ;.W.- = z.& &.%@9.w.@..                                                                                                                           ",
"                                                                                                                          4+'+w 9.F+y & k+A.7@r@B , 7+C n+~ { `.^ I+A@_ G e.B@(+Y+].2 3 1@J.6 7 i.9 0 N+b R S C@f m.h V W {@l u+n Z z@6@..s o@D@D@o@s ..6@z@Z n u+l {@W V h m.f C@S R b N+0 9 i.7 6 J.1@3 2 ].Y+(+B@e.G _ A@I+^ `.{ ~ n+C 7+, B r@7@A.k+& y F+9.w '+4+                                                                                                                          ",
"                                                                                                                          . @.E@9.x % & k+A.q@~+> F@>.,.! ~ W+).^ !.8+_ : I.[ c@I ].Z+3 d@/.6 7 b+9 M+G@b c }.|.f >@n.H@W {@l u+n R.p 6@r s g@u.u.g@s r 6@p R.n u+l {@W H@n.>@f |.}.c b G@M+9 b+7 6 /.d@3 Z+].I c@[ I.: _ 8+!.^ ).W+~ ! ,.>.F@> ~+q@A.k+& % x 9.E@@..                                                                                                                           "};
