/* XPM */
static char * maximize_unfocus_transparent_xpm[] = {
"25 25 3 1",
" 	c None",
".	c #2A2A2A",
"+	c #9C9C9C",
"                         ",
"                         ",
"                         ",
"                         ",
"                         ",
"                         ",
"        .........        ",
"        +++++++++        ",
"        +++++++++        ",
"        ++     ++        ",
"        ++     ++        ",
"        ++     ++        ",
"        ++     ++        ",
"        ++.....++        ",
"        +++++++++        ",
"        +++++++++        ",
"                         ",
"                         ",
"                         ",
"                         ",
"                         ",
"                         ",
"                         ",
"                         ",
"                         "};
