/* XPM */
static char *image[] = {
"64 64 92 2",
"   c None",
"00 c #679cf6",
"10 c #669cf6",
"20 c #81aef7",
"30 c #93b9f8",
"40 c #7cabf7",
"50 c #aeccfa",
"60 c #6b9ff6",
"70 c #8cb5f8",
"80 c #ebf3fe",
"90 c #c5dafb",
":0 c #8ab4f8",
";0 c #79a9f7",
"A0 c #ecf2fe",
"B0 c #6fa2f6",
"C0 c #bcd4fb",
"D0 c #a5c5f9",
"E0 c #5396ed",
"F0 c #e2edfc",
"G0 c #afccfa",
"H0 c #b2cefa",
"I0 c #a6c6fa",
"J0 c #a9cbf6",
"K0 c #f5f9fe",
"L0 c #e3edfc",
"M0 c #287cea",
"N0 c #a9c7fa",
"O0 c #669ef5",
"P0 c #dde8fd",
"Q0 c #7fb0f2",
"R0 c #9fc0f1",
"S0 c #c2d8fb",
"T0 c #f5f8ff",
"U0 c #70a7f0",
"V0 c #6fa0e3",
"W0 c #669cf5",
"X0 c #70a8f0",
"Y0 c #b7d0f1",
"Z0 c #e3ecf9",
"a0 c #4082e4",
"b0 c #659df5",
"c0 c #2c74db",
"d0 c #5396ee",
"e0 c #9ac2f5",
"f0 c #8cb3e8",
"g0 c #538fed",
"h0 c #dbe8fd",
"i0 c #a9caf6",
"j0 c #3b7fe2",
"k0 c #aecafa",
"l0 c #b3cefa",
"m0 c #3784eb",
"n0 c #e2ecf9",
"o0 c #226dd7",
"p0 c #ebf2fe",
"q0 c #619af4",
"r0 c #659cf4",
"s0 c #287ce9",
"t0 c #f1f7fe",
"u0 c #4988e9",
"v0 c #c6dcf9",
"w0 c #a9c6ef",
"x0 c #669bf5",
"y0 c #fafcff",
"z0 c #d4e5fb",
"01 c #7eb0f2",
"11 c #3684eb",
"21 c #1a73e8",
"31 c #458dec",
"41 c #9bc1f5",
"51 c #7ea9e6",
"61 c #3178dd",
"71 c #f1f5fc",
"81 c #679ef6",
"91 c #ccdefc",
":1 c #e2ecfa",
";1 c #2771d4",
"A1 c #1e6ad4",
"B1 c #669df6",
"C1 c #aecbfa",
"D1 c #c7dbfb",
"E1 c #e6effe",
"F1 c #f5f8fe",
"G1 c #ffffff",
"H1 c #d3e3f7",
"I1 c #9abdeb",
"J1 c #367ad7",
"K1 c #5691ed",
"L1 c #1866d1",
"M1 c #1967d3",
"N1 c #1967d2",
"O1 c #1967d1",
"                                                        O1N1N1N1N1N1M1N1                                                        ",
"                                              O1N1N1N1N1N1N1N1N1N1N1N1N1N1N1N1N1M1                                              ",
"                                          N1N1N1N1N1N1N1N1N1N1N1N1N1N1N1N1N1N1N1N1N1N1N1                                        ",
"                                    N1N1N1N1N1N1N1N1N1N1N1N1N1N1N1N1N1N1N1N1N1N1N1N1N1N1N1N1                                    ",
"                                N1N1N1N1N1N1N1N1N1N1N1N1N1N1N1N1N1N1N1N1N1N1N1N1N1N1N1N1N1N1N1N1                                ",
"                              N1N1N1N1N1N1N1N1N1N1N1N1N1N1N1N1N1N1N1N1N1N1N1N1N1N1N1N1N1N1N1N1N1N1N1                            ",
"                          N1N1N1N1N1N1N1N1N1N1N1N1N1N1N1N1N1N1N1N1N1N1N1N1N1N1N1N1N1N1N1N1N1N1N1N1N1N1                          ",
"                        N1N1N1N1N1N1N1N1N1N1N1N1N1N1N1N1N1N1N1N1N1N1N1N1N1N1N1N1N1N1N1N1N1N1N1N1N1N1N1N1                        ",
"                      N1N1N1N1N1N1N1N1N1N1N1N1N1N1N1N1N1N1N1N1N1N1N1N1N1N1N1N1N1N1N1N1N1N1N1N1N1N1N1N1N1N1N1                    ",
"                    N1N1N1N1N1N1N1N1N1N1N1N1N1N1N1N1N1N1N1N1N1N1N1N1N1N1N1N1N1N1N1N1N1N1N1N1N1N1N1N1N1N1N1N1N1                  ",
"                  N1N1N1N1N1N1N1N1N1N1N1N1N1N1N1N1N1N1N1N1N1N1N1N1N1N1N1N1N1N1N1N1N1N1N1N1N1N1N1N1N1N1N1N1N1N1N1                ",
"                N1N1N1N1N1N1N1N1N1N1N1N1N1N1N1N1N1N1N1N1N1N1N1N1N1N1N1N1N1N1N1N1N1N1N1N1N1N1N1N1N1N1N1N1N1N1N1N1N1              ",
"              N1N1N1N1N1N1N1N1N1N1N1N1N1N1N1N1N1N1N1N1N1N1N1N1N1N1N1N1N1N1N1N1N1N1N1N1N1N1N1N1N1N1N1N1N1N1N1N1N1N1              ",
"            N1N1N1N1N1N1N1N1N1N1N1N1N1N1N1N1N1N1N1N1N1N1N1N1N1N1N1N1N1N1N1N1N1N1N1N1N1N1N1N1N1N1N1N1N1N1N1N1N1N1N1N1            ",
"            N1N1N1N1N1N1N1N1N1N1N1N1N1N1N1N1N1N1N1N1N1N1N1N1N1N1N1N1N1N1N1N1N1N1N1N1N1N1N1N1N1N1N1N1N1N1N1N1N1N1N1N1N1          ",
"          N1N1N1N1N1N1N1N1N1N1N1N1N1N1N1N1N1N1N1N1N1N1N1N1N1N1N1N1N1N1N1N1N1N1N1N1N1N1N1N1N1N1N1N1N1N1N1N1N1N1N1N1N1N1L1        ",
"        K1N1N1N1N1N1N1N1N1N1N1N1N1N1N1N1N1N1N1N1N1N1N1N1J1I1H1G1G1F1E1D1C1C1C1C1C1C1C1C1C1C1C1C1C1C1C1C1C1C1C1C1C1C1C1C1        ",
"        B1A1N1N1N1N1N1N1N1N1N1N1N1N1N1N1N1N1N1N1N1;1:1G1G1G1G1G1G1G1G1G1G1G191C1C1C1C1C1C1C1C1C1C1C1C1C1C1C1C1C1C1C1C1C1C1      ",
"      81B1B1N1N1N1N1N1N1N1N1N1N1N1N1N1N1N1N1N1N171G1G1G1G1G1G1G1G1G1G1G1G1G1G1G191C1C1C1C1C1C1C1C1C1C1C1C1C1C1C1C1C1C1C1C1      ",
"      B1B1B161N1N1N1N1N1N1N1N1N1N1N1N1N1N1N151G1G1G1G1G1G1413121211101z0G1G1G1G1G1y0C1C1C1C1C1C1C1C1C1C1C1C1C1C1C1C1C1C1C1C1    ",
"    x0B1B1B1B1N1N1N1N1N1N1N1N1N1N1N1N1N1N1w0G1G1G1G1v02121212121212121212131G1G1G1G1G1C1C1C1C1C1C1C1C1C1C1C1C1C1C1C1C1C1C1C1    ",
"    B1B1B1B1B1u0N1N1N1N1N1N1N1N1N1N1N1N1w0G1G1G1t0212121212121212121212121212101G1G1G1G1C1C1C1C1C1C1C1C1C1C1C1C1C1C1C1C1C1C1    ",
"    B1B1B1B1B1B1N1N1N1N1N1N1N1N1N1N1N151G1G1G1z021212121212121212121212121212121s0G1G1G1G1C1C1C1C1C1C1C1C1C1C1C1C1C1C1C1C1C1C1  ",
"  r0B1B1B1B1B1B1q0N1N1N1N1N1N1N1N1N1N1G1G1G1z021212121212121212121212121212121212121G1G1G1p0C1C1C1C1C1C1C1C1C1C1C1C1C1C1C1C1C1  ",
"  B1B1B1B1B1B1B1B1o0N1N1N1N1N1N1N1N1n0G1G1t02121212121212121212121212121212121212121m0G1G1G1l0C1C1C1C1C1C1C1C1C1C1C1C1C1C1C1C1  ",
"  B1B1B1B1B1B1B1B1B1N1N1N1N1N1N1N1J1G1G1G121212121212121212121212121212121212121212121v0G1G1y0C1C1C1C1C1C1C1C1C1C1C1C1C1C1C1C1k0",
"  B1B1B1B1B1B1B1B1B1j0N1N1N1N1N1N1n0G1G1i02121212121212121212121212121212121212121212121G1G1G1C1C1C1C1C1C1C1C1C1C1C1C1C1C1C1C1C1",
"  B1B1B1B1B1B1B1B1B1B1N1N1N1N1N1N1G1G1G1212121212121212121212121212121212121212121212121v0G1G1h0C1C1C1C1C1C1C1C1C1C1C1C1C1C1C1C1",
"r0B1B1B1B1B1B1B1B1B1B1g0N1N1N1N1J1G1G1G1212121212121212121212121212121212121212121212121s0G1G1G1C1C1C1C1C1C1C1C1C1C1C1C1C1C1C1C1",
"81B1B1B1B1B1B1B1B1B1B1B1N1N1N1N1f0G1G1e021212121212121212121212121212121212121212121212121G1G1G1C1C1C1C1C1C1C1C1C1C1C1C1C1C1C1C1",
"B1B1B1B1B1B1B1B1B1B1B1B1q0N1N1N1H1G1G1d021212121212121212121212121212121212121212121212121G1G1G1C1C1C1C1C1C1C1C1C1C1C1C1C1C1C1C1",
"B1B1B1B1B1B1B1B1B1B1B1B1B1c0N1N1G1G1G12121212121212121212121212121212121212121212121212121G1G1G1C1C1C1C1C1C1C1C1C1C1C1C1C1C1C1C1",
"B1B1B1B1B1B1B1B1B1B1B1B1B1B1N1N1G1G1G12121212121212121212121212121212121212121212121212121G1G1G1C1C1C1C1C1C1C1C1C1C1C1C1C1C1C1C1",
"b0B1B1B1B1B1B1B1B1B1B1B1B1B1a0N1Z0G1G11121212121212121212121212121212121212121212121212121G1G1G1C1C1C1C1C1C1C1C1C1C1C1C1C1C1C1C1",
"B1B1B1B1B1B1B1B1B1B1B1B1B1B1B1N1Y0G1G1X021212121212121212121212121212121212121212121212121G1G1G1C1C1C1C1C1C1C1C1C1C1C1C1C1C1C1C1",
"W0B1B1B1B1B1B1B1B1B1B1B1B1B1B1g0V0G1G1z021212121212121212121212121212121212121212121212121G1G1G1C1C1C1C1C1C1C1C1C1C1C1C1C1C1C1C1",
"  B1B1B1B1B1B1B1B1B1B1B1B1B1B1B1A1G1G1G1212121212121212121212121212121212121212121212121U0G1G1T0C1C1C1C1C1C1C1C1C1C1C1C1C1C1C1C1",
"  B1B1B1B1B1B1B1B1B1B1B1B1B1B1B1q0G1G1G1d02121212121212121212121212121212121212121212121G1G1G1S0C1C1C1C1C1C1C1C1C1C1C1C1C1C1C1C1",
"  B1B1B1B1B1B1B1B1B1B1B1B1B1B1B1B1R0G1G1G121212121212121212121212121212121212121212121m0G1G1G1C1C1C1C1C1C1C1C1C1C1C1C1C1C1C1C1C1",
"  B1B1B1B1B1B1B1B1B1B1B1B1B1B1B1B1B1G1G1G1Q0212121212121212121212121212121212121212121G1G1G1P0C1C1C1C1C1C1C1C1C1C1C1C1C1C1C1C1  ",
"  O0B1B1B1B1B1B1B1B1B1B1B1B1B1B1B1B1N0G1G1G1M021212121212121212121212121212121212121L0G1G1G1C1C1C1C1C1C1C1C1C1C1C1C1C1C1C1C1C1  ",
"    B1B1B1B1B1B1B1B1B1B1B1B1B1B1B1B1B1K0G1G1G1212121212121212121212121212121212121J0G1G1G1I0C1C1C1C1C1C1C1C1C1C1C1C1C1C1C1C1C1  ",
"    B1B1B1B1B1B1B1B1B1B1B1B1B1B1B1B1B1B1G1G1G1G111212121212121212121212121212121L0G1G1G1H0C1C1C1C1C1C1C1C1C1C1C1C1C1C1C1C1C1G0  ",
"    b0B1B1B1B1B1B1B1B1B1B1B1B1B1B1B1B1B1B1G1G1G1G1F0212121212121212121212121E0G1G1G1G1h0D0C1C1C1C1C1C1C1C1C1C1C1C1C1C1C1C1C1    ",
"      B1B1B1B1B1B1B1B1B1B1B1B1B1B1B1B1B1B1B1G1G1G1G1G1z0112121212121212101G1G1G1G1G1C0B0C1C1C1C1C1C1C1C1C1C1C1C1C1C1C1C1C1C1    ",
"      B1B1B1B1B1B1B1B1B1B1B1B1B1B1B1B1B1B1B1B1A0G1G1G1G1G1G1G1G1G1G1G1G1G1G1G1G1G1;0B1C1C1C1C1C1C1C1C1C1C1C1C1C1C1C1C1C1C1      ",
"        B1B1B1B1B1B1B1B1B1B1B1B1B1B1B1B1B1B1B1B1;0T0G1G1G1G1G1G1G1G1G1G1G1G1G1H0B1B1:0C1C1C1C1C1C1C1C1C1C1C1C1C1C1C1C1C1C1      ",
"        B1B1B1B1B1B1B1B1B1B1B1B1B1B1B1B1B1B1B1B1B1B1B190G1G1G1G1G1G1G1G18070B1B1B1B1C1C1C1C1C1C1C1C1C1C1C1C1C1C1C1C1C1C1        ",
"          B1B1B1B1B1B1B1B1B1B1B1B1B1B1B1B1B1B1B1B1B1B1B1B1B1B1B1B1B1B1B1B1B1B1B1B1D0C1C1C1C1C1C1C1C1C1C1C1C1C1C1C1C1C1C1        ",
"          B1B1B1B1B1B1B1B1B1B1B1B1B1B1B1B1B1B1B1B1B1B1B1B1B1B1B1B1B1B1B1B1B1B1B160C1C1C1C1C1C1C1C1C1C1C1C1C1C1C1C1C1C1          ",
"            B1B1B1B1B1B1B1B1B1B1B1B1B1B1B1B1B1B1B1B1B1B1B1B1B1B1B1B1B1B1B1B1B1B1C1C1C1C1C1C1C1C1C1C1C1C1C1C1C1C1C1C150          ",
"              B1B1B1B1B1B1B1B1B1B1B1B1B1B1B1B1B1B1B1B1B1B1B1B1B1B1B1B1B1B1B1B140C1C1C1C1C1C1C1C1C1C1C1C1C1C1C1C1C1C1            ",
"              r0B1B1B1B1B1B1B1B1B1B1B1B1B1B1B1B1B1B1B1B1B1B1B1B1B1B1B1B1B1B1B1C1C1C1C1C1C1C1C1C1C1C1C1C1C1C1C1C1C1              ",
"                O0B1B1B1B1B1B1B1B1B1B1B1B1B1B1B1B1B1B1B1B1B1B1B1B1B1B1B1B1B130C1C1C1C1C1C1C1C1C1C1C1C1C1C1C1C1C1                ",
"                  B1B1B1B1B1B1B1B1B1B1B1B1B1B1B1B1B1B1B1B1B1B1B1B1B1B1B1B1B1C1C1C1C1C1C1C1C1C1C1C1C1C1C1C1C1C1                  ",
"                    B1B1B1B1B1B1B1B1B1B1B1B1B1B1B1B1B1B1B1B1B1B1B1B1B1B1B1D0C1C1C1C1C1C1C1C1C1C1C1C1C1C1C1C1                    ",
"                      B1B1B1B1B1B1B1B1B1B1B1B1B1B1B1B1B1B1B1B1B1B1B1B1B1B0C1C1C1C1C1C1C1C1C1C1C1C1C1C1C1C1                      ",
"                          B1B1B1B1B1B1B1B1B1B1B1B1B1B1B1B1B1B1B1B1B1B1B1C1C1C1C1C1C1C1C1C1C1C1C1C1C1C1C1                        ",
"                            B1B1B1B1B1B1B1B1B1B1B1B1B1B1B1B1B1B1B1B1B120C1C1C1C1C1C1C1C1C1C1C1C1C1C150                          ",
"                              x0B1B1B1B1B1B1B1B1B1B1B1B1B1B1B1B1B1B1B1C1C1C1C1C1C1C1C1C1C1C1C1C1C1                              ",
"                                  B1B1B1B1B1B1B1B1B1B1B1B1B1B1B1B1B130C1C1C1C1C1C1C1C1C1C1C1C1                                  ",
"                                      10B1B1B1B1B1B1B1B1B1B1B1B1B1B1C1C1C1C1C1C1C1C1C1C1C1                                      ",
"                                            b0B1B1B1B1B1B1B1B1B1B1D0C1C1C1C1C1C1C1C1G0                                          ",
"                                                  00b0B1B1B1B1B1B0C1C1C1C1C1C1                                                  "};
