/* XPM */
static char *image[] = {
"48 48 4 1",
"  c None",
"0 c #bebebe",
"1 c #bdbdbd",
"2 c #bfbfbf",
"                                                ",
"                                                ",
"                                               2",
"                                              21",
"                                              02",
"               0                             002",
"               0                             001",
"               00                           0000",
"               000                         00000",
"               1000                      0000000",
"               000002                  000000000",
"               000000002            000000000000",
"               000000000000000000000000000000000",
"               000000000000000000001000000000000",
"               00000000000000000      0000000000",
"               000000    000000        000000000",
"               0000       0000          00000000",
"              00000        000    0000  00000001",
"   2010       0000    000  001    0000  00000002",
" 00000000     0000    000  000    0000  00000001",
"2000000000    0000    000  000     00   00000002",
"10000000002  000000        0001        10000000 ",
"00000000000  000000       00000        00000000 ",
"000000000001000000001    00000000    0000000000 ",
"20000000000000000000000000000000000000000000000 ",
" 0000000000000000000000000000000000000000000000 ",
" 00000000000000000000000000000000  200000000000 ",
"  00000000000000000000000000000000  0000000000  ",
"   00000000000000000000000000000000  000000000  ",
"     00010000000000000000000000001    00000000  ",
"         0000000001 100000000000      0000000   ",
"           000000000   1000002      022000000   ",
"            100000000               00000000    ",
"              000000000         01   200000     ",
"               20000000000       001   000      ",
"                 0000000000000   1000           ",
"                   100000000000   0000          ",
"                      1000000000   0000         ",
"                         02100000   0000        ",
"                                     1000102    ",
"                                      2100000   ",
"                                       0000000  ",
"                                       00000002 ",
"                                        0000000 ",
"                                         000000 ",
"                                            0001",
"                                               2",
"                                                "};
