/* XPM */
static char *image[] = {
"48 48 38 1",
"  c None",
"0 c #a7b0b8",
"1 c #a4aeb4",
"2 c #8b959c",
"3 c #758087",
"4 c #778289",
"5 c #8b959b",
"6 c #a4adb4",
"7 c #9da7ac",
"8 c #c5ccd1",
"9 c #c8cfd3",
": c #a2abb0",
"; c #c9d0d3",
"A c #9da6ac",
"B c #364550",
"C c #394953",
"D c #59656f",
"E c #bec5c8",
"F c #bbc1c6",
"G c #56636c",
"H c #f1f3f5",
"I c #5c6971",
"J c #c2c8cb",
"K c #384852",
"L c #374751",
"M c #263742",
"N c #35454f",
"O c #9ca5ac",
"P c #aab2b9",
"Q c #c6ced2",
"R c #abb3b9",
"S c #abb4ba",
"T c #d2d8dc",
"U c #d1d7db",
"V c #c7cdd2",
"W c #aab4ba",
"X c #a7b0b7",
"Y c #aab3ba",
"                                                ",
"                                                ",
"                                                ",
"                                                ",
"     YXXXXXXXXXXXXXXXXXXXXXXXXXXXXXXXXXXXXY     ",
"    WVUTTTTTTTTTTTTTTTTTTTTTTTTTTTTTTTTTTUVS    ",
"   RVTTTTTTTTTTTTTTTTTTTTTTTTTTTTTTTTTTTTTTQP   ",
"   XUTTTTTTTTTTTTTTTTTTTTTTTTTTTTTTTTTTTTTTUX   ",
"   XTTTONMMMMMMMMMMMMMMMMMMMMMMMMMMMMMMNOTTTX   ",
"   XTTTLMMMMMMMMMMMMMMMMMMMMMMMMMMMMMMMMKTTTX   ",
"   XTTTMMMMMMMMMMMMMMMMMMMMMMMMMMMMMMMMMMTTTX   ",
"   XTTTMMMMMMMMMMMMMMMMMMMMMMMMMMMMMMMMMMTTTX   ",
"   XTTTMMMMJIMMMMMMMMMMMMMMMMMMMMMMMMMMMMTTTX   ",
"   XTTTMMMMHHJIMMMMMMMMMMMMMMMMMMMMMMMMMMTTTX   ",
"   XTTTMMMMGFHHJIMMMMMMMMMMMMMMMMMMMMMMMMTTTX   ",
"   XTTTMMMMMMGFHHMMMMMMMMMMMMMMMMMMMMMMMMTTTX   ",
"   XTTTMMMMMMGFHHMMMMMMMMMMMMMMMMMMMMMMMMTTTX   ",
"   XTTTMMMMGFHHJIMMMMMMMMMMMMMMMMMMMMMMMMTTTX   ",
"   XTTTMMMMHHJIMMMMMMMMMMMMMMMMMMMMMMMMMMTTTX   ",
"   XTTTMMMMEDMMMMMMMMMMMMMMMMMMMMMMMMMMMMTTTX   ",
"   XTTTMMMMMMMMMMMMMMMMMMMMMMMMMMMMMMMMMMTTTX   ",
"   XTTTMMMMMMMMMMMMMMMMMMMMMMMMMMMMMMMMMMTTTX   ",
"   XTTTMMMMMMMMMMMMHHHHHHHHMMMMMMMMMMMMMMTTTX   ",
"   XTTTMMMMMMMMMMMMHHHHHHHHMMMMMMMMMMMMMMTTTX   ",
"   XTTTMMMMMMMMMMMMMMMMMMMMMMMMMMMMMMMMMMTTTX   ",
"   XTTTMMMMMMMMMMMMMMMMMMMMMMMMMMMMMMMMMMTTTX   ",
"   XTTTMMMMMMMMMMMMMMMMMMMMMMMMMMMMMMMMMMTTTX   ",
"   XTTTMMMMMMMMMMMMMMMMMMMMMMMMMMMMMMMMMMTTTX   ",
"   XTTTMMMMMMMMMMMMMMMMMMMMMMMMMMMMMMMMMMTTTX   ",
"   XTTTMMMMMMMMMMMMMMMMMMMMMMMMMMMMMMMMMMTTTX   ",
"   XTTTMMMMMMMMMMMMMMMMMMMMMMMMMMMMMMMMMMTTTX   ",
"   XTTTMMMMMMMMMMMMMMMMMMMMMMMMMMMMMMMMMMTTTX   ",
"   XTTTMMMMMMMMMMMMMMMMMMMMMMMMMMMMMMMMMMTTTX   ",
"   XTTTMMMMMMMMMMMMMMMMMMMMMMMMMMMMMMMMMMTTTX   ",
"   XTTTMMMMMMMMMMMMMMMMMMMMMMMMMMMMMMMMMMTTTX   ",
"   XTTTMMMMMMMMMMMMMMMMMMMMMMMMMMMMMMMMMMTTTX   ",
"   XTTTMMMMMMMMMMMMMMMMMMMMMMMMMMMMMMMMMMTTTX   ",
"   XTTTLMMMMMMMMMMMMMMMMMMMMMMMMMMMMMMMMCTTTX   ",
"   XTTTOBMMMMMMMMMMMMMMMMMMMMMMMMMMMMMMBATTTX   ",
"   XTTTTTTTTTTTTTTTTTTTTTTTTTTTTTTTTTTTTTTTTX   ",
"   X;TTTTTTTTTTTTTTTTTTTTTTTTTTTTTTTTTTTTTTVX   ",
"   Y:9TTTTTTTTTTTTTTTTTTTTTTTTTTTTTTTTTTTT87P   ",
"    6543333333333333333333333333333333333421    ",
"     P0XXXXXXXXXXXXXXXXXXXXXXXXXXXXXXXXXX0P     ",
"                                                ",
"                                                ",
"                                                ",
"                                                "};
