/* XPM */
static char *image[] = {
"48 48 227 2",
"   c None",
"00 c #9bc1f2",
"10 c #98c0f1",
"20 c #97c0f1",
"30 c #94bef0",
"40 c #93bdf0",
"50 c #90bcf0",
"60 c #90bbf0",
"70 c #8ebbf0",
"80 c #8dbaef",
"90 c #9bc2f0",
":0 c #bbdeea",
";0 c #bcdfe9",
"A0 c #bbdfe9",
"B0 c #9cc4f1",
"C0 c #bbdee9",
"D0 c #badee9",
"E0 c #89b7ef",
"F0 c #98c1f1",
"G0 c #b8dbe9",
"H0 c #badde9",
"I0 c #b9dde9",
"J0 c #b9dce9",
"K0 c #86b6ee",
"L0 c #95bef0",
"M0 c #b8dcea",
"N0 c #b8dbea",
"O0 c #85b5ee",
"P0 c #93bef0",
"Q0 c #b7dbea",
"R0 c #b7daea",
"S0 c #b6d9ea",
"T0 c #92bdf0",
"U0 c #b6daea",
"V0 c #b4d9ea",
"W0 c #82b3ee",
"X0 c #91bcf0",
"Y0 c #b5d9ea",
"Z0 c #b4d8ea",
"a0 c #81b2ee",
"b0 c #8fbbf0",
"c0 c #b4d8eb",
"d0 c #b3d8eb",
"e0 c #7fb2ed",
"f0 c #8ebaef",
"g0 c #b3d7eb",
"h0 c #b2d7eb",
"i0 c #7eb1ed",
"j0 c #8cb9ef",
"k0 c #b2d6eb",
"l0 c #b1d6eb",
"m0 c #8bb9ef",
"n0 c #b1d5eb",
"o0 c #b0d5eb",
"p0 c #b0d5ec",
"q0 c #afd3ec",
"r0 c #8ab8ef",
"s0 c #b0d4ec",
"t0 c #7aaeed",
"u0 c #88b7ef",
"v0 c #afd4ec",
"w0 c #add3ec",
"x0 c #aed3ec",
"y0 c #77adec",
"z0 c #86b5ee",
"01 c #add2ec",
"11 c #acd2ec",
"21 c #acd1ec",
"31 c #acd1ed",
"41 c #a8cdee",
"51 c #84b4ee",
"61 c #abd1ed",
"71 c #abd0ed",
"81 c #aad0ed",
"91 c #aacfed",
":1 c #73aaec",
";1 c #81b3ee",
"A1 c #a9cfed",
"B1 c #a9ceed",
"C1 c #72a9ec",
"D1 c #80b2ee",
"E1 c #a8ceed",
"F1 c #a8ceee",
"G1 c #a6cdee",
"H1 c #7fb1ed",
"I1 c #a7cdee",
"J1 c #6fa8eb",
"K1 c #7db0ed",
"L1 c #a6ccee",
"M1 c #a5ccee",
"N1 c #6da7eb",
"O1 c #7cb0ed",
"P1 c #a5cbee",
"Q1 c #7bafed",
"R1 c #a4cbee",
"S1 c #a4caee",
"T1 c #79aeed",
"U1 c #a3caef",
"V1 c #a3c9ef",
"W1 c #a1c7ef",
"X1 c #78adec",
"Y1 c #a2c9ef",
"Z1 c #a2c8ef",
"a1 c #9fc7ef",
"b1 c #96bff1",
"c1 c #66a3e9",
"d1 c #76acec",
"e1 c #a1c8ef",
"f1 c #87b6ee",
"g1 c #589ae6",
"h1 c #75abec",
"i1 c #a0c7ef",
"j1 c #9fc6ef",
"k1 c #95bff0",
"l1 c #83b4ee",
"m1 c #2b7cdc",
"n1 c #74abec",
"o1 c #9fc6f0",
"p1 c #9ec6f0",
"q1 c #8ebaf0",
"r1 c #66a2ea",
"s1 c #65a2e9",
"t1 c #599ae7",
"u1 c #3d88e3",
"v1 c #70a9eb",
"w1 c #9ac3ef",
"x1 c #9ec5f0",
"y1 c #9dc5f0",
"z1 c #3981d8",
"02 c #5a9ae6",
"12 c #9dc4f0",
"22 c #9cc4f0",
"32 c #9cc3f0",
"42 c #9ac1f1",
"52 c #3980d7",
"62 c #2c7bdb",
"72 c #6da7e9",
"82 c #8bb9ee",
"92 c #98c1f0",
":2 c #9bc3f0",
";2 c #9bc3f1",
"A2 c #9bc2f1",
"B2 c #9ac2f1",
"C2 c #99c1f1",
"D2 c #8dbaf0",
"E2 c #67a3e9",
"F2 c #3980d6",
"G2 c #2c6fc1",
"H2 c #5d99df",
"I2 c #6ca5e9",
"J2 c #6da6eb",
"K2 c #6ca6eb",
"L2 c #6ba6eb",
"M2 c #6ba5eb",
"N2 c #6aa5eb",
"O2 c #6aa5ea",
"P2 c #69a4ea",
"Q2 c #68a4ea",
"R2 c #68a3ea",
"S2 c #67a3ea",
"T2 c #66a3ea",
"U2 c #65a2ea",
"V2 c #387fd5",
"W2 c #1b60b6",
"X2 c #1b61b9",
"Y2 c #1b6fd6",
"Z2 c #1c67c4",
"a2 c #1c61b7",
"b2 c #1c62b8",
"c2 c #1c70d6",
"d2 c #1c67c3",
"e2 c #1c63ba",
"f2 c #1d63b9",
"g2 c #1d64ba",
"h2 c #1e64bb",
"i2 c #1f65bc",
"j2 c #1f66bd",
"k2 c #2067be",
"l2 c #2068bf",
"m2 c #2169c1",
"n2 c #226ac2",
"o2 c #226ac3",
"p2 c #236bc4",
"q2 c #246cc5",
"r2 c #246dc6",
"s2 c #256ec7",
"t2 c #256fc8",
"u2 c #266fc9",
"v2 c #2770ca",
"w2 c #2771cb",
"x2 c #2872cd",
"y2 c #2873ce",
"z2 c #2974cf",
"03 c #2a74d0",
"13 c #1b70d6",
"23 c #1c70d7",
"33 c #2673d2",
"43 c #2a75d1",
"53 c #3483e2",
"63 c #1d70d7",
"73 c #2b76d2",
"83 c #3382e2",
"93 c #1c72d8",
":3 c #2774d3",
";3 c #2b77d3",
"A3 c #3381e0",
"B3 c #3382e1",
"C3 c #2b7cdf",
"D3 c #1e73d8",
"E3 c #1d71d7",
"F3 c #2775d4",
"G3 c #2c78d4",
"H3 c #2d79d5",
"I3 c #2d79d6",
"J3 c #2e7ad7",
"K3 c #2f7bd9",
"L3 c #2f7cda",
"M3 c #307ddb",
"N3 c #307edc",
"O3 c #317fdd",
"P3 c #327fde",
"Q3 c #3280df",
"R3 c #3180df",
"S3 c #2a7bdd",
"T3 c #1d72d8",
"U3 c #1c71d8",
"V3 c #1c71d9",
"                                                                                                ",
"                                                                                                ",
"        V3U3U3U3U3U3U3U3U3U3U3U3U3T3                                                            ",
"      T3S3R3Q3P3O3N3M3L3K3J3I3H3G3F3E3                                                          ",
"    D3C3B3A3Q3P3O3N3M3L3K3J3I3H3G3;3:3E3                                                        ",
"    9383B3A3Q3P3O3N3M3L3K3J3I3H3G3;373:363                                                      ",
"    U353B3A3Q3P3O3N3M3L3K3J3I3H3G3;373433393U3U3U3U3U3U3U3U3U3U3U3U3U3U3U3U3U3U3U3U32313        ",
"    U353B3A3Q3P3O3N3M3L3K3J3I3H3G3;3734303z2y2x2w2v2u2t2s2r2q2p2o2n2m2l2k2j2i2h2g2f2e2d2c2      ",
"    U353B3A3Q3P3O3N3M3L3K3J3I3H3G3;3734303z2y2x2w2v2u2t2s2r2q2p2o2n2m2l2k2j2i2h2g2f2b2a2Z2Y2    ",
"    U353B3A3Q3P3O3N3M3L3K3J3I3H3G3;3734303z2y2x2w2v2u2t2s2r2q2p2o2n2m2l2k2j2i2h2g2f2b2a2X223    ",
"    U353B3A3Q3P3O3N3M3L3K3J3I3H3G3;3734303z2y2x2w2v2u2t2s2r2q2p2o2n2m2l2k2j2i2h2g2f2b2a2W2U3    ",
"    U353B3A3Q3P3O3N3M3L3K3J3I3H3G3;3734303z2V2U2T2S2S2R2Q2Q2P2P2P2O2N2N2M2L2K2K2K2J2I2H2G2U3    ",
"    U353B3A3Q3P3O3N3M3L3K3J3I3H3G3;3734303F2E2D2C2C2C2C2C2C2C2C2C2C2C2B2B2B2B2A2;2:292827262    ",
"    U353B3A3Q3P3O3N3M3L3K3J3I3H3G3;3734352E2D2C2C2C2C2C2C2C242B2B2B2A2A2;2:2:232222222128202    ",
"    U353B3A3Q3P3O3N3M3L3K3J3I3H3G3;373z1R2D2C2C2C2C2B2B2B2B2A2;2;2:232322222121212y1y1x1w1v1    ",
"    U3u1t1s1U2r1r1T2S2S2R2Q2Q2P2P2P2O2N2q1C2B2B2B2B2A2;2:2:232322222121212y1x1x1x1p1o1o1o1n1    ",
"    m1r1l1k1C2C2C2C2C2C2C2C2C2C2C242B2B2B2A2;2;2:2:2322222221212y1y1x1x1x1p1o1o1o1j1i1i1i1h1    ",
"    g1f1C2C2C2C2C2C2C2C2C2B2B2B2B2A2;2;2:232322222121212y1y1x1x1x1p1o1o1o1j1i1i1i1i1e1e1e1d1    ",
"    c1b1C2C2C2C2C2B2B2B2B2A2;2:2:2323222221212y1y1x1x1x1p1o1o1o1o1a1i1i1i1i1e1e1e1e1Z1Y1Y1X1    ",
"    P2C2B2B2B2B2A2;2;2:2:2322222221212y1y1x1x1x1p1o1o1o1j1i1i1i1i1W1e1e1e1e1Z1Y1Y1Y1V1V1U1T1    ",
"    M2B2A2;2:2:232322222121212y1y1x1x1x1p1o1o1o1j1i1i1i1i1e1e1e1e1Z1Y1Y1Y1V1V1U1U1U1S1S1R1Q1    ",
"    K2:2323222221212y1y1x1x1x1p1o1o1o1o1a1i1i1i1i1e1e1e1e1Z1Y1Y1Y1V1V1U1U1S1S1S1R1P1P1P1P1O1    ",
"    N1221212y1y1x1x1x1p1o1o1o1j1i1i1i1i1W1e1e1e1e1Z1Y1Y1Y1V1U1U1U1S1S1R1R1P1P1P1M1L1L1L1L1K1    ",
"    J1x1x1x1x1p1o1o1o1a1i1i1i1i1e1e1e1e1Z1Y1Y1Y1V1V1U1U1U1S1S1R1R1P1P1P1M1L1L1L1L1I1I1I1I1H1    ",
"    v1o1o1o1o1i1i1i1i1i1e1e1e1e1Z1Y1Y1Y1V1V1U1U1S1S1S1R1P1P1P1M1M1L1L1L1G1I1I1I1I1F1E1E1E1D1    ",
"    C1i1i1i1i1W1e1e1e1Z1Y1Y1Y1Y1V1U1U1U1S1S1R1R1P1P1P1M1L1L1L1L1I1I1I1I1I1E1E1E1E1B1A1A1A1;1    ",
"    :1e1e1e1e1Z1Y1Y1Y1V1V1U1U1S1S1S1R1R1P1P1P1M1L1L1L1L1I1I1I1I1F1E1E1E1B1A1A1A1A191818181l1    ",
"    n1Z1Y1Y1Y1V1V1U1U1S1S1S1R1P1P1P1M1L1L1L1L1G1I1I1I1I1F1E1E1E1B1A1A1A191918181717171616151    ",
"    d1V1U1U1U1S1S1R1R1P1P1P1M1L1L1L1L1I1I1I1I141E1E1E1E1B1A1A1A191918181717161613131211101z0    ",
"    y0S1S1R1R1P1P1P1M1L1L1L1L1I1I1I1I1F1E1E1E1B1A1A1A19191818181717161613121211101010101x0f1    ",
"    X1P1P1M1L1L1L1L1G1I1I1I1I1F1E1E1E1B1A1A1A191918181717171613131212111010101w0x0x0x0x0v0u0    ",
"    t0L1L1L1I1I1I1I141E1E1E1E1B1A1A1A191818181717161613131211101010101x0x0x0x0x0v0v0v0v0s0r0    ",
"    Q1I1I1I1F1E1E1E1B1A1A1A19191818181717161613121211101010101x0x0x0x0q0v0v0v0s0p0p0o0o0n0m0    ",
"    K1E1E1E1B1A1A1A191918181717171613131211111010101w0x0x0x0x0v0v0v0v0s0p0p0o0n0n0l0l0k0k0j0    ",
"    i0A1A1A191818181717161613131211101010101x0x0x0x0x0v0v0v0v0s0p0o0o0n0n0l0l0k0k0h0h0g0g0f0    ",
"    e0818171717161613121211101010101x0x0x0x0q0v0v0v0s0p0p0o0o0n0l0l0l0k0k0h0h0g0g0g0d0c0c0b0    ",
"    a071613131211101010101w0x0x0x0x0v0v0v0v0s0p0o0o0n0n0l0l0k0k0k0h0h0g0g0g0d0c0c0c0Z0Y0Y0X0    ",
"    W0211101010101x0x0x0x0q0v0v0v0v0s0p0o0o0n0n0l0l0k0k0h0h0g0g0g0d0c0c0c0c0V0Y0Y0Y0Y0U0U0T0    ",
"    l10101x0x0x0x0v0v0v0v0s0p0p0o0n0n0l0l0l0k0k0h0h0g0g0g0d0c0c0c0Z0Y0Y0Y0Y0S0U0U0U0U0R0Q0P0    ",
"    O0x0x0v0v0v0v0s0p0o0o0n0n0l0l0k0k0k0h0g0g0g0g0d0c0c0c0V0Y0Y0Y0Y0U0U0U0U0R0Q0Q0Q0N0N0M0L0    ",
"    K0v0v0s0p0o0o0n0l0l0l0k0k0h0h0g0g0g0d0c0c0c0c0Y0Y0Y0Y0Y0U0U0U0U0R0Q0Q0Q0N0N0M0M0J0J0J0b1    ",
"    u0o0n0n0l0l0l0k0k0h0h0g0g0g0d0c0c0c0Z0Y0Y0Y0Y0S0U0U0U0R0Q0Q0Q0Q0N0M0M0M0J0J0I0I0H0H0G0F0    ",
"    E0l0k0k0k0h0g0g0g0d0d0c0c0c0V0Y0Y0Y0Y0U0U0U0U0R0Q0Q0Q0N0N0M0M0J0J0J0I0I0H0H0H0D0C0C0k0B0    ",
"    r0h0g0g0g0d0c0c0c0c0Y0Y0Y0Y0Y0U0U0U0U0R0Q0Q0Q0N0N0M0M0J0J0J0I0H0H0H0D0C0C0C0C0A0;0:0a1      ",
"    j0d0c0c0c0Z0Y0Y0Y0Y0S0U0U0U0R0Q0Q0Q0Q0N0M0M0M0J0J0I0I0H0H0H0D0C0C0C0C0;0;0;0;0H0l0p190      ",
"    8080f070b0b0b0605050X0X0X0T0T04040P0303030L0k1b1b1b12020201010F0C2C2C2C2C2C2C200:2          ",
"                                                                                                ",
"                                                                                                "};
