/* XPM */
static char *image[] = {
"48 48 271 2",
"   c None",
"00 c #9bc1f2",
"10 c #98c0f1",
"20 c #97c0f1",
"30 c #94bef0",
"40 c #93bdf0",
"50 c #90bcf0",
"60 c #90bbf0",
"70 c #8ebbf0",
"80 c #8dbaef",
"90 c #9bc2f0",
":0 c #bbdeea",
";0 c #bcdfe9",
"A0 c #bbdfe9",
"B0 c #9cc4f1",
"C0 c #bbdee9",
"D0 c #badee9",
"E0 c #89b7ef",
"F0 c #98c1f1",
"G0 c #b8dbe9",
"H0 c #badde9",
"I0 c #b9dde9",
"J0 c #b9dce9",
"K0 c #86b6ee",
"L0 c #95bef0",
"M0 c #b8dcea",
"N0 c #b8dbea",
"O0 c #85b5ee",
"P0 c #93bef0",
"Q0 c #b7dbea",
"R0 c #b7daea",
"S0 c #b6d9ea",
"T0 c #92bdf0",
"U0 c #b6daea",
"V0 c #b4d9ea",
"W0 c #82b3ee",
"X0 c #91bcf0",
"Y0 c #b5d9ea",
"Z0 c #b4d8ea",
"a0 c #81b2ee",
"b0 c #8fbbf0",
"c0 c #b4d8eb",
"d0 c #b3d8eb",
"e0 c #aed3ea",
"f0 c #75aee9",
"g0 c #74ade9",
"h0 c #abd0eb",
"i0 c #7fb2ed",
"j0 c #8ebaef",
"k0 c #b3d7eb",
"l0 c #b2d7eb",
"m0 c #74aee9",
"n0 c #73ade9",
"o0 c #7eb1ed",
"p0 c #8cb9ef",
"q0 c #b2d6eb",
"r0 c #b1d6eb",
"s0 c #4c94e7",
"t0 c #95c2ea",
"u0 c #93c1eb",
"v0 c #4b93e7",
"w0 c #8bb9ef",
"x0 c #b1d5eb",
"y0 c #b0d5eb",
"z0 c #b0d5ec",
"01 c #afd3ec",
"11 c #8ab8ef",
"21 c #b0d4ec",
"31 c #7aaeed",
"41 c #88b7ef",
"51 c #afd4ec",
"61 c #add3ec",
"71 c #aed3ec",
"81 c #589be8",
"91 c #77adec",
":1 c #86b5ee",
";1 c #add2ec",
"A1 c #acd2ec",
"B1 c #acd1ec",
"C1 c #acd1ed",
"D1 c #5a9ce8",
"E1 c #a8cdee",
"F1 c #599ce8",
"G1 c #84b4ee",
"H1 c #abd1ed",
"I1 c #abd0ed",
"J1 c #79b0eb",
"K1 c #579ae7",
"L1 c #aad0ed",
"M1 c #aacfed",
"N1 c #a3caee",
"O1 c #66a4e9",
"P1 c #5f9fe8",
"Q1 c #9ec6ed",
"R1 c #9bc4ed",
"S1 c #5c9de8",
"T1 c #6ca7ea",
"U1 c #a1c8ee",
"V1 c #73aaec",
"W1 c #81b3ee",
"X1 c #a9cfed",
"Y1 c #a9ceed",
"Z1 c #87b9eb",
"a1 c #89b9ec",
"b1 c #86b8eb",
"c1 c #4991e7",
"d1 c #4b92e6",
"e1 c #88b9ec",
"f1 c #72a9ec",
"g1 c #80b2ee",
"h1 c #a8ceed",
"i1 c #a8ceee",
"j1 c #a6cdee",
"k1 c #9bc5ee",
"l1 c #5c9ee8",
"m1 c #6aa5e9",
"n1 c #69a5e9",
"o1 c #428ce6",
"p1 c #5c9de9",
"q1 c #99c3ef",
"r1 c #7fb1ed",
"s1 c #a7cdee",
"t1 c #72abea",
"u1 c #438de6",
"v1 c #418ce6",
"w1 c #448fe6",
"x1 c #7bb1eb",
"y1 c #6fa8eb",
"z1 c #7db0ed",
"02 c #a6ccee",
"12 c #a5ccee",
"22 c #90bded",
"32 c #5498e8",
"42 c #8fbded",
"52 c #6da7eb",
"62 c #7cb0ed",
"72 c #a5cbee",
"82 c #7bafed",
"92 c #a4cbee",
":2 c #a4caee",
";2 c #79aeed",
"A2 c #a3caef",
"B2 c #a3c9ef",
"C2 c #a1c7ef",
"D2 c #78adec",
"E2 c #a2c9ef",
"F2 c #a2c8ef",
"G2 c #9fc7ef",
"H2 c #96bff1",
"I2 c #66a3e9",
"J2 c #76acec",
"K2 c #a1c8ef",
"L2 c #87b6ee",
"M2 c #589ae6",
"N2 c #75abec",
"O2 c #a0c7ef",
"P2 c #9fc6ef",
"Q2 c #95bff0",
"R2 c #83b4ee",
"S2 c #2b7cdc",
"T2 c #74abec",
"U2 c #9fc6f0",
"V2 c #9ec6f0",
"W2 c #8ebaf0",
"X2 c #66a2ea",
"Y2 c #65a2e9",
"Z2 c #599ae7",
"a2 c #3d88e3",
"b2 c #70a9eb",
"c2 c #9ac3ef",
"d2 c #9ec5f0",
"e2 c #9dc5f0",
"f2 c #3981d8",
"g2 c #5a9ae6",
"h2 c #9dc4f0",
"i2 c #9cc4f0",
"j2 c #9cc3f0",
"k2 c #9ac1f1",
"l2 c #3980d7",
"m2 c #2c7bdb",
"n2 c #6da7e9",
"o2 c #8bb9ee",
"p2 c #98c1f0",
"q2 c #9bc3f0",
"r2 c #9bc3f1",
"s2 c #9bc2f1",
"t2 c #9ac2f1",
"u2 c #99c1f1",
"v2 c #8dbaf0",
"w2 c #67a3e9",
"x2 c #3980d6",
"y2 c #2c6fc1",
"z2 c #5d99df",
"03 c #6ca5e9",
"13 c #6da6eb",
"23 c #6ca6eb",
"33 c #6ba6eb",
"43 c #6ba5eb",
"53 c #6aa5eb",
"63 c #6aa5ea",
"73 c #69a4ea",
"83 c #68a4ea",
"93 c #68a3ea",
":3 c #67a3ea",
";3 c #66a3ea",
"A3 c #65a2ea",
"B3 c #387fd5",
"C3 c #1b60b6",
"D3 c #1b61b9",
"E3 c #1b6fd6",
"F3 c #1c67c4",
"G3 c #1c61b7",
"H3 c #1c62b8",
"I3 c #1c70d6",
"J3 c #1c67c3",
"K3 c #1c63ba",
"L3 c #1d63b9",
"M3 c #1d64ba",
"N3 c #1e64bb",
"O3 c #1f65bc",
"P3 c #1f66bd",
"Q3 c #2067be",
"R3 c #2068bf",
"S3 c #2169c1",
"T3 c #226ac2",
"U3 c #226ac3",
"V3 c #236bc4",
"W3 c #246cc5",
"X3 c #246dc6",
"Y3 c #256ec7",
"Z3 c #256fc8",
"a3 c #266fc9",
"b3 c #2770ca",
"c3 c #2771cb",
"d3 c #2872cd",
"e3 c #2873ce",
"f3 c #2974cf",
"g3 c #2a74d0",
"h3 c #1b70d6",
"i3 c #1c70d7",
"j3 c #2673d2",
"k3 c #2a75d1",
"l3 c #3483e2",
"m3 c #1d70d7",
"n3 c #2b76d2",
"o3 c #3382e2",
"p3 c #1c72d8",
"q3 c #2774d3",
"r3 c #2b77d3",
"s3 c #3381e0",
"t3 c #3382e1",
"u3 c #2b7cdf",
"v3 c #1e73d8",
"w3 c #1d71d7",
"x3 c #2775d4",
"y3 c #2c78d4",
"z3 c #2d79d5",
"04 c #2d79d6",
"14 c #2e7ad7",
"24 c #2f7bd9",
"34 c #2f7cda",
"44 c #307ddb",
"54 c #307edc",
"64 c #317fdd",
"74 c #327fde",
"84 c #3280df",
"94 c #3180df",
":4 c #2a7bdd",
";4 c #1d72d8",
"A4 c #1c71d8",
"B4 c #1c71d9",
"                                                                                                ",
"                                                                                                ",
"        B4A4A4A4A4A4A4A4A4A4A4A4A4;4                                                            ",
"      ;4:494847464544434241404z3y3x3w3                                                          ",
"    v3u3t3s3847464544434241404z3y3r3q3w3                                                        ",
"    p3o3t3s3847464544434241404z3y3r3n3q3m3                                                      ",
"    A4l3t3s3847464544434241404z3y3r3n3k3j3p3A4A4A4A4A4A4A4A4A4A4A4A4A4A4A4A4A4A4A4A4i3h3        ",
"    A4l3t3s3847464544434241404z3y3r3n3k3g3f3e3d3c3b3a3Z3Y3X3W3V3U3T3S3R3Q3P3O3N3M3L3K3J3I3      ",
"    A4l3t3s3847464544434241404z3y3r3n3k3g3f3e3d3c3b3a3Z3Y3X3W3V3U3T3S3R3Q3P3O3N3M3L3H3G3F3E3    ",
"    A4l3t3s3847464544434241404z3y3r3n3k3g3f3e3d3c3b3a3Z3Y3X3W3V3U3T3S3R3Q3P3O3N3M3L3H3G3D3i3    ",
"    A4l3t3s3847464544434241404z3y3r3n3k3g3f3e3d3c3b3a3Z3Y3X3W3V3U3T3S3R3Q3P3O3N3M3L3H3G3C3A4    ",
"    A4l3t3s3847464544434241404z3y3r3n3k3g3f3B3A3;3:3:393838373737363535343332323231303z2y2A4    ",
"    A4l3t3s3847464544434241404z3y3r3n3k3g3x2w2v2u2u2u2u2u2u2u2u2u2u2u2t2t2t2t2s2r2q2p2o2n2m2    ",
"    A4l3t3s3847464544434241404z3y3r3n3k3l2w2v2u2u2u2u2u2u2u2k2t2t2t2s2s2r2q2q2j2i2i2i2h2o2g2    ",
"    A4l3t3s3847464544434241404z3y3r3n3f293v2u2u2u2u2t2t2t2t2s2r2r2q2j2j2i2i2h2h2h2e2e2d2c2b2    ",
"    A4a2Z2Y2A3X2X2;3:3:39383837373736353W2u2t2t2t2t2s2r2q2q2j2j2i2i2h2h2h2e2d2d2d2V2U2U2U2T2    ",
"    S2X2R2Q2u2u2u2u2u2u2u2u2u2u2u2k2t2t2t2s2r2r2q2q2j2i2i2i2h2h2e2e2d2d2d2V2U2U2U2P2O2O2O2N2    ",
"    M2L2u2u2u2u2u2u2u2u2u2t2t2t2t2s2r2r2q2j2j2i2i2h2h2h2e2e2d2d2d2V2U2U2U2P2O2O2O2O2K2K2K2J2    ",
"    I2H2u2u2u2u2u2t2t2t2t2s2r2q2q2j2j2i2i2h2h2e2e2d2d2d2V2U2U2U2U2G2O2O2O2O2K2K2K2K2F2E2E2D2    ",
"    73u2t2t2t2t2s2r2r2q2q2j2i2i2i2h2h2e2e2d2d2d2V2U2U2U2P2O2O2O2O2C2K2K2K2K2F2E2E2E2B2B2A2;2    ",
"    43t2s2r2q2q2j2j2i2i2h2h2h2e2e2d2d2d2V2U2U2U2P2O2O2O2O2K2K2K2K2F2E2E2E2B2B2A2A2A2:2:29282    ",
"    23q2j2j2i2i2h2h2e2e2d2d2d2V2U2U2U2U2G2O2O2O2O2K2K2K2K2F2E2E2E2B2B2A2A2:2:2:2927272727262    ",
"    52i2h2h2e2e2d2d2d2V2U2U2U2P2O2O2O2O2C2K242323222E2E2E2B2A2A2A2:2:292927272721202020202z1    ",
"    y1d2d2d2d2V2U2U2U2G2O2O2O2O2K2K2K2K2K2x1w1v1v1u1t1B2A2:2:292927272721202020202s1s1s1s1r1    ",
"    b2U2U2U2U2O2O2O2O2O2K2K2K2K2F2E2E2q1p1v1o1n1m1o1v1l1k172721212020202j1s1s1s1s1i1h1h1h1g1    ",
"    f1O2O2O2O2C2K2K2K2F2E2E2E2E2B2A2e1d1v1c1b19272a1d1v1c1Z10202s1s1s1s1s1h1h1h1h1Y1X1X1X1W1    ",
"    V1K2K2K2K2F2E2E2E2B2B2A2A2:2U1T1o1v1S1R172120202Q1P1v1v1O1N1i1h1h1h1Y1X1X1X1X1M1L1L1L1R2    ",
"    T2F2E2E2E2B2B2A2A2:2:2:29272K1v1v1J1120202j1s1s1s1j1x1v1v1K1Y1X1X1X1M1M1L1L1I1I1I1H1H1G1    ",
"    J2B2A2A2A2:2:292927272721202F1v1v1s1s1s1s1E1h1h1h1h1Y1v1v1D1M1M1L1L1I1I1H1H1C1C1B1A1;1:1    ",
"    91:2:292927272721202020202s1s1v1v1i1h1h181v1F1X1X1M1M1v1v1L1I1I1H1H1C1B1B1A1;1;1;1;171L2    ",
"    D272721202020202j1s1s1s1s1i1h1v1v1Y1X1X1v1v1v1L1L1I1I1v1v1C1C1B1B1A1;1;1;161717171715141    ",
"    31020202s1s1s1s1E1h1h1h1h1Y1X1v1v1M1L1L1v1v1v1H1H1C1C1v1v1;1;1;1;17171717171515151512111    ",
"    82s1s1s1i1h1h1h1Y1X1X1X1M1M1L1v1v1I1I1H1v1v1v1B1A1;1;1v1v1717171710151515121z0z0y0y0x0w0    ",
"    z1h1h1h1Y1X1X1X1M1M1L1L1I1I1I1v0v1u0B1A1v1v1v1;16171t0v1s05151515121z0z0y0x0x0r0r0q0q0p0    ",
"    o0X1X1X1M1L1L1L1I1I1H1H1C1C1B1n0v1v1v1v1v1v1v1v1v1v1v1v1m021z0y0y0x0x0r0r0q0q0l0l0k0k0j0    ",
"    i0L1L1I1I1I1H1H1C1B1B1A1;1;1;1h0g0s0v1v1v1v1v1v1v1v1s0f0e0x0r0r0r0q0q0l0l0k0k0k0d0c0c0b0    ",
"    a0I1H1C1C1B1A1;1;1;1;161717171715151515121z0y0y0x0x0r0r0q0q0q0l0l0k0k0k0d0c0c0c0Z0Y0Y0X0    ",
"    W0B1A1;1;1;1;171717171015151515121z0y0y0x0x0r0r0q0q0l0l0k0k0k0d0c0c0c0c0V0Y0Y0Y0Y0U0U0T0    ",
"    R2;1;1717171715151515121z0z0y0x0x0r0r0r0q0q0l0l0k0k0k0d0c0c0c0Z0Y0Y0Y0Y0S0U0U0U0U0R0Q0P0    ",
"    O071715151515121z0y0y0x0x0r0r0q0q0q0l0k0k0k0k0d0c0c0c0V0Y0Y0Y0Y0U0U0U0U0R0Q0Q0Q0N0N0M0L0    ",
"    K0515121z0y0y0x0r0r0r0q0q0l0l0k0k0k0d0c0c0c0c0Y0Y0Y0Y0Y0U0U0U0U0R0Q0Q0Q0N0N0M0M0J0J0J0H2    ",
"    41y0x0x0r0r0r0q0q0l0l0k0k0k0d0c0c0c0Z0Y0Y0Y0Y0S0U0U0U0R0Q0Q0Q0Q0N0M0M0M0J0J0I0I0H0H0G0F0    ",
"    E0r0q0q0q0l0k0k0k0d0d0c0c0c0V0Y0Y0Y0Y0U0U0U0U0R0Q0Q0Q0N0N0M0M0J0J0J0I0I0H0H0H0D0C0C0q0B0    ",
"    11l0k0k0k0d0c0c0c0c0Y0Y0Y0Y0Y0U0U0U0U0R0Q0Q0Q0N0N0M0M0J0J0J0I0H0H0H0D0C0C0C0C0A0;0:0G2      ",
"    p0d0c0c0c0Z0Y0Y0Y0Y0S0U0U0U0R0Q0Q0Q0Q0N0M0M0M0J0J0I0I0H0H0H0D0C0C0C0C0;0;0;0;0H0r0V290      ",
"    8080j070b0b0b0605050X0X0X0T0T04040P0303030L0Q2H2H2H22020201010F0u2u2u2u2u2u2u200q2          ",
"                                                                                                ",
"                                                                                                "};
