/* XPM */
static char * close_focus_xpm[] = {
"25 26 3 1",
" 	c #121244",
".	c #EEEEEC",
"+	c #2A2A2A",
"                         ",
"                         ",
"                         ",
"                         ",
"                         ",
"                         ",
"                         ",
"                         ",
"        ..+   +..        ",
"        ...+ +...        ",
"        +...+...+        ",
"         +.....+         ",
"          +...+          ",
"         +.....+         ",
"        +...+...+        ",
"        ...+ +...        ",
"        ..+   +..        ",
"                         ",
"                         ",
"                         ",
"                         ",
"                         ",
"                         ",
"                         ",
"                         ",
"                         "};
