/* XPM */
static char * iconbar_focus_xpm[] = {
"240 25 364 2",
"  	c #121244",
". 	c #131446",
"+ 	c #141748",
"@ 	c #14194B",
"# 	c #161B4D",
"$ 	c #161D4F",
"% 	c #171E52",
"& 	c #182053",
"* 	c #192356",
"= 	c #192558",
"- 	c #1A275A",
"; 	c #1B295C",
"> 	c #1C2B5F",
", 	c #1C2D61",
"' 	c #1E2F64",
") 	c #1E3266",
"! 	c #1F3468",
"~ 	c #20356B",
"{ 	c #21386D",
"] 	c #223A6F",
"^ 	c #233B71",
"/ 	c #233F74",
"( 	c #244076",
"_ 	c #254277",
": 	c #25447A",
"< 	c #27467C",
"[ 	c #27497E",
"} 	c #284B81",
"| 	c #294D83",
"1 	c #294F85",
"2 	c #2A5088",
"3 	c #2B538A",
"4 	c #2C558C",
"5 	c #2D578F",
"6 	c #2E5990",
"7 	c #2E5B93",
"8 	c #305E96",
"9 	c #306098",
"0 	c #31629A",
"a 	c #31649C",
"b 	c #32669F",
"c 	c #3369A1",
"d 	c #346BA3",
"e 	c #356DA6",
"f 	c #366EA8",
"g 	c #3771AA",
"h 	c #3873AD",
"i 	c #3875AE",
"j 	c #3977B1",
"k 	c #3A79B3",
"l 	c #3A7CB5",
"m 	c #3B7EB7",
"n 	c #3C7FBA",
"o 	c #3D82BC",
"p 	c #3E84BE",
"q 	c #3F86C1",
"r 	c #141649",
"s 	c #14184B",
"t 	c #151A4D",
"u 	c #161C4F",
"v 	c #171F51",
"w 	c #182154",
"x 	c #1A2558",
"y 	c #1A295D",
"z 	c #1D2E61",
"A 	c #1D2F64",
"B 	c #1F3368",
"C 	c #20366A",
"D 	c #21386C",
"E 	c #213A6F",
"F 	c #223C71",
"G 	c #233E73",
"H 	c #234075",
"I 	c #254278",
"J 	c #26457A",
"K 	c #26467C",
"L 	c #27487F",
"M 	c #294C83",
"N 	c #2A5188",
"O 	c #2D5A91",
"P 	c #2F5C94",
"Q 	c #32649D",
"R 	c #33679F",
"S 	c #3468A1",
"T 	c #346AA3",
"U 	c #366CA5",
"V 	c #3671AA",
"W 	c #3773AC",
"X 	c #3975AE",
"Y 	c #3978B1",
"Z 	c #3B7BB5",
"` 	c #3C7DB8",
" .	c #3C80B9",
"..	c #3E84BF",
"+.	c #131649",
"@.	c #171F52",
"#.	c #182054",
"$.	c #182356",
"%.	c #1A275B",
"&.	c #1B295D",
"*.	c #1C2D62",
"=.	c #1E3165",
"-.	c #1F3369",
";.	c #20366B",
">.	c #20386C",
",.	c #213A6E",
"'.	c #233E74",
").	c #26447A",
"!.	c #284A80",
"~.	c #294F86",
"{.	c #2B5088",
"].	c #2C538A",
"^.	c #2D588F",
"/.	c #2F5E96",
"(.	c #306198",
"_.	c #31629B",
":.	c #32649C",
"<.	c #3469A1",
"[.	c #346AA4",
"}.	c #366FA8",
"|.	c #3873AC",
"1.	c #3875AF",
"2.	c #397AB3",
"3.	c #3B7CB6",
"4.	c #3B7DB7",
"5.	c #3E82BC",
"6.	c #3F85C0",
"7.	c #121446",
"8.	c #15184B",
"9.	c #171E51",
"0.	c #172053",
"a.	c #192256",
"b.	c #1A2559",
"c.	c #1B2C5F",
"d.	c #1D2D62",
"e.	c #1D2F63",
"f.	c #21376C",
"g.	c #25457A",
"h.	c #284A81",
"i.	c #2A5288",
"j.	c #2D568D",
"k.	c #2F5C93",
"l.	c #305E95",
"m.	c #356DA5",
"n.	c #3770AA",
"o.	c #3A7AB3",
"p.	c #3B7BB6",
"q.	c #121243",
"r.	c #161D50",
"s.	c #182153",
"t.	c #1B2A5D",
"u.	c #1C2C5F",
"v.	c #27477C",
"w.	c #27497F",
"x.	c #294D84",
"y.	c #2A5086",
"z.	c #2B5288",
"A.	c #2B548B",
"B.	c #2E5A91",
"C.	c #316098",
"D.	c #356CA6",
"E.	c #356FA7",
"F.	c #3670AA",
"G.	c #3A77B1",
"H.	c #3A7BB5",
"I.	c #3D81BC",
"J.	c #3E86C1",
"K.	c #141648",
"L.	c #161A4D",
"M.	c #172154",
"N.	c #192459",
"O.	c #1C2B60",
"P.	c #1D2D61",
"Q.	c #1E3166",
"R.	c #21376D",
"S.	c #244278",
"T.	c #26467D",
"U.	c #274980",
"V.	c #284B82",
"W.	c #2A4F86",
"X.	c #2B5189",
"Y.	c #2E5992",
"Z.	c #346BA4",
"`.	c #356CA5",
" +	c #3D81BD",
".+	c #3E83BE",
"++	c #3E86C0",
"@+	c #131447",
"#+	c #161B4E",
"$+	c #172153",
"%+	c #1E3265",
"&+	c #27477D",
"*+	c #2B5188",
"=+	c #2E5C93",
"-+	c #31659C",
";+	c #356BA3",
">+	c #366DA6",
",+	c #3876AE",
"'+	c #3977B0",
")+	c #3B7CB5",
"!+	c #3B7EB8",
"~+	c #3D80BA",
"{+	c #15184A",
"]+	c #172054",
"^+	c #1E2F63",
"/+	c #1F3166",
"(+	c #1F366A",
"_+	c #233C71",
":+	c #2A5289",
"<+	c #2E5A92",
"[+	c #2F5E95",
"}+	c #3368A1",
"|+	c #3975AF",
"1+	c #3C7EB7",
"2+	c #3C80BA",
"3+	c #3E83BF",
"4+	c #15194B",
"5+	c #1B2B5F",
"6+	c #1E3063",
"7+	c #20386D",
"8+	c #223C72",
"9+	c #243F74",
"0+	c #244176",
"a+	c #254378",
"b+	c #284C82",
"c+	c #294E83",
"d+	c #2A5085",
"e+	c #2E5C94",
"f+	c #31649D",
"g+	c #32679E",
"h+	c #356FA8",
"i+	c #3C7DB7",
"j+	c #141749",
"k+	c #1F3469",
"l+	c #21386E",
"m+	c #223A70",
"n+	c #223D72",
"o+	c #244077",
"p+	c #254379",
"q+	c #26457B",
"r+	c #274A7F",
"s+	c #294B82",
"t+	c #2C568C",
"u+	c #33669E",
"v+	c #366EA7",
"w+	c #3A79B4",
"x+	c #3D7FBA",
"y+	c #151B4D",
"z+	c #161E52",
"A+	c #213B6F",
"B+	c #223D71",
"C+	c #26477D",
"D+	c #294E84",
"E+	c #2C558D",
"F+	c #32669E",
"G+	c #3773AD",
"H+	c #3876AF",
"I+	c #3A7BB6",
"J+	c #3D84BE",
"K+	c #1C2E62",
"L+	c #1E3064",
"M+	c #223B70",
"N+	c #25457B",
"O+	c #2A5189",
"P+	c #2D558D",
"Q+	c #2D5991",
"R+	c #3C7FB9",
"S+	c #1C2C60",
"T+	c #1D2E62",
"U+	c #1D3064",
"V+	c #233C72",
"W+	c #244379",
"X+	c #2B5289",
"Y+	c #2B538B",
"Z+	c #31659D",
"`+	c #33679E",
" @	c #3D80B9",
".@	c #14184A",
"+@	c #1B275B",
"@@	c #1B2A5E",
"#@	c #2C548A",
"$@	c #306099",
"%@	c #366FA7",
"&@	c #3978B0",
"*@	c #3C7EB8",
"=@	c #15194A",
"-@	c #192456",
";@	c #192659",
">@	c #1A285B",
",@	c #1C2A5D",
"'@	c #1F3266",
")@	c #20376B",
"!@	c #284A7F",
"~@	c #32679F",
"{@	c #3B7DB8",
"]@	c #3F85C1",
"^@	c #161C50",
"/@	c #1B285B",
"(@	c #1B295E",
"_@	c #284D84",
":@	c #2C568D",
"<@	c #33669F",
"[@	c #171D4F",
"}@	c #192559",
"|@	c #171F53",
"1@	c #182254",
"2@	c #1D3065",
"3@	c #203469",
"4@	c #2B548A",
"5@	c #2F5B93",
"6@	c #31639A",
"7@	c #32659D",
"8@	c #131547",
"9@	c #192457",
"0@	c #1F3267",
"a@	c #213B70",
"b@	c #243E74",
"c@	c #2D5A92",
"d@	c #3979B3",
"e@	c #3D7FB9",
"f@	c #3F86C0",
"g@	c #121245",
"h@	c #172052",
"i@	c #182155",
"j@	c #213A70",
"k@	c #28497F",
"l@	c #284C81",
"m@	c #2E5991",
"n@	c #3D82BD",
"o@	c #3F86C2",
"p@	c #121345",
"q@	c #192357",
"r@	c #223B6F",
"s@	c #2F5B94",
"t@	c #3E85BF",
"u@	c #131344",
"v@	c #182456",
"w@	c #1E3267",
"x@	c #254279",
"y@	c #2D558C",
"z@	c #31639B",
"A@	c #3F85BF",
"B@	c #3F87C1",
"C@	c #2C538B",
"D@	c #32659C",
"E@	c #3A7AB4",
"F@	c #131345",
"G@	c #14194C",
"H@	c #182357",
"I@	c #20396D",
"J@	c #3872AC",
"K@	c #3976AF",
"L@	c #3978B2",
"M@	c #3C81BB",
"N@	c #3E82BD",
"O@	c #131245",
"P@	c #14174A",
"Q@	c #171D50",
"R@	c #1A285C",
"S@	c #244378",
"T@	c #2C548B",
"U@	c #3771AB",
"V@	c #3874AD",
"W@	c #3F84BF",
"                                                                                                                                  . + @ # $ % & * = - ; > , ' ) ! ~ { ] ^ / ( _ : < [ } | 1 2 3 4 5 6 7 8 9 0 a b c d e f g h i j k l m n o p q q p o n m l k j i h g f e d c b a 0 9 8 7 6 5 4 3 2 1 | } [ < : _ ( / ^ ] { ~ ! ) ' , > ; - = * & % $ # @ + .                                                                                                                                   ",
"                                                                                                                                  . r s t u v w * x - y > z A ) B C D E F G H I J K L } M 1 N 3 4 5 O P 8 9 0 Q R S T U f V W X Y k Z `  .o ..q q ..o  .` Z k Y X W V f U T S R Q 0 9 8 P O 5 4 3 N 1 M } L K J I H G F E D C B ) A z > y - x * w v u t s r .                                                                                                                                   ",
"                                                                                                                                  . +.@ t $ @.#.$.= %.&.> *.A =.-.;.>.,.F '.( I ).< [ !.| ~.{.].4 ^.O P /.(._.:.R <.[.e }.V |.1.j 2.3.4.n 5.p 6.6.p 5.n 4.3.2.j 1.|.V }.e [.<.R :._.(./.P O ^.4 ].{.~.| !.[ < ).I ( '.F ,.>.;.-.=.A *.> &.%.= $.#.@.$ t @ +..                                                                                                                                   ",
"                                                                                                                                  7.r 8.t $ 9.0.a.b.%.&.c.d.e.) ! C f.E ^ G ( _ g.K L h.| 1 i.3 j.^.O k.l.9 0 :.R c d m.}.n.W 1.j o.p.4. .o p q q p o  .4.p.o.j 1.W n.}.m.d c R :.0 9 l.k.O ^.j.3 i.1 | h.L K g._ ( G ^ E f.C ! ) e.d.c.&.%.b.a.0.9.$ t 8.r 7.                                                                                                                                  ",
"                  q.                                                                                                              . r 8.t r.9.s.$.x %.t.u.*.e.) ! C { E F '.( I J v.w.} x.y.z.A.4 5 B.P /.C._.:.b c T D.E.F.W 1.G.k H.4.n I...J.J...I.n 4.H.k G.1.W F.E.D.T c b :._.C./.P B.5 4 A.z.y.x.} w.v.J I ( '.F E { C ! ) e.*.u.t.%.x $.s.9.r.t 8.r .                                                                                                               q.                  ",
"                                                                                                                                  . K.@ L.u % M.* N.%.y O.P.' Q.! C R.E F G ( S.: T.U.V.x.W.X.A.4 ^.Y.P /.C.0 Q R <.Z.`.}.V W i j k Z ` n  +.+++++.+ +n ` Z k j i W V }.`.Z.<.R Q 0 C./.P Y.^.4 A.X.W.x.V.U.T.: S.( G F E R.C ! Q.' P.O.y %.N.* M.% u L.@ K..                                                                                                                                   ",
"                                                                                                                                  @++.s #+u @.$+* x %.&.> z A %+! ;.{ ] F G ( S.J &+w.} x.W.*+3 4 ^.B.=+l.C.0 -+b c ;+>+f g W ,+'+k )+!+~+o ..q q ..o ~+!+)+k '+,+W g f >+;+c b -+0 C.l.=+B.^.4 3 *+W.x.} w.&+J S.( G F ] { ;.! %+A z > &.%.x * $+@.u #+s +.@+                                                                                                                                  ",
"              q.                                                                                                                  . K.{+L.$ v ]+$.N.%.t.> d.^+/+! (+R.E _+G ( I : T.U.V.x.W.:+3 j.^.<+k.[+9 0 Q R }+;+m.f g |.|+j k p.1+2+o 3+q q 3+o 2+1+p.k j |+|.g f m.;+}+R Q 0 9 [+k.<+^.j.3 :+W.x.V.U.T.: I ( G _+E R.(+! /+^+d.> t.%.N.$.]+v $ L.{+K..                                                                                                                   q.              ",
"                                                                                                                                  . +.4+t $ v 0.$.x - &.5+z 6+Q.! ;.7+E 8+9+0+a+).T.w.b+c+d+i.A.4 ^.B.e+/.9 _.f+g+<.d e h+g W i '+o.)+i+n I..+q q .+I.n i+)+o.'+i W g h+e d <.g+f+_.9 /.e+B.^.4 A.i.d+c+b+w.T.).a+0+9+8+E 7+;.! Q.6+z 5+&.- x $.0.v $ t 4++..                                                                                                                                   ",
"                                                                                                                                  . j+{+L.u @.w * b.%.&.c., ^+) k+(+l+m+n+G o+p+q+&+r+s+x.W.N ].t+^.B.=+/.9 0 -+u+c T e v+g W 1.j w+p.!+x+5.p q q p 5.x+!+p.w+j 1.W g v+e T c u+-+0 9 /.=+B.^.t+].N W.x.s+r+&+q+p+o+G n+m+l+(+k+) ^+, c.&.%.b.* w @.u L.{+j+.                                                                                                                                   ",
"    q.                                                                                                                            . +.8.y+$ z+$+$.= %.t.5+d.^+Q.k+;.7+A+B+/ ( a+q+C+r+V.D+~.z.3 E+^.Y.k.8 9 0 :.F+S Z.D.}.n.G+H+j k I+4.n o J+6.6.J+o n 4.I+k j H+G+n.}.D.Z.S F+:.0 9 8 k.Y.^.E+3 z.~.D+V.r+C+q+a+( / B+A+7+;.k+Q.^+d.5+t.%.= $.$+z+$ y+8.+..                                                                                                                             q.    ",
"                                                                                                                                  . K.s t u @.#.* = %.&.5+K+L+) ! ;.{ M+F / 0+a+N+C+U.V.x.y.O+3 P+^.Q+k.8 9 _.:.b c T `.}.g W X Y k Z 1+R+o p 6.6.p o R+1+Z k Y X W g }.`.T c b :._.9 8 k.Q+^.P+3 O+y.x.V.U.C+N+a+0+/ F M+{ ;.! ) L+K+5+&.%.= * #.@.u t s K..                                                                                                                                   ",
"                                                                                                                                  . + s # $ v w * = %.&.S+T+U+) ! ;.{ m+V+/ ( W+J &+w.V.x.W.X+Y+E+^.Q+k.l.9 0 Z+`+<.d e }.V |.i G.k l 4. @I..+q q .+I. @4.l k G.i |.V }.e d <.`+Z+0 9 l.k.Q+^.E+Y+X+W.x.V.w.&+J W+( / V+m+{ ;.! ) U+T+S+&.%.= * w v $ # s + .                                                                                                                                   ",
"                                                                                                                                  . r .@t u @.w * b.+@@@u.T+U+) ! ;.{ m+8+/ 0+p+q+&+w.} x.W.z.#@4 5 B.P 8 $@0 Q R }+T D.%@g W 1.&@k H.*@2+5.p ++++p 5.2+*@H.k &@1.W g %@D.T }+R Q 0 $@8 P B.5 4 #@z.W.x.} w.&+q+p+0+/ 8+m+{ ;.! ) U+T+u.@@+@b.* w @.u t .@r .                                                                                                                                   ",
"                                                                                q.                                                @+r =@t $ 9.s.-@;@>@,@S+T+L+'@! )@{ ] n+'.0+W+q+&+!@s+x.W.O+Y+E+^.B.e+/.9 0 Q ~@S [.e f V |.1.j k 3.{@2+o ..]@]@..o 2+{@3.k j 1.|.V f e [.S ~@Q 0 9 /.e+B.^.E+Y+O+W.x.s+!@&+q+W+0+'.n+] { )@! '@L+T+S+,@>@;@-@s.9.$ t =@r @+                                                q.                                                                                ",
"                                                                                                                                  @++.8.t ^@@.w * b./@(@O.T+U+'@! C { ] B+'.0+a+q+&+U.} _@~.*+].:@^.B.k./.C.0 Q <@S T e %@V |.1.j k Z m n o p ++++p o n m Z k j 1.|.V %@e T S <@Q 0 C./.k.B.^.:@].*+~._@} U.&+q+a+0+'.B+] { C ! '@U+T+O.(@/@b.* w @.^@t 8.+.@+                                                                                                                                  ",
"                                                                                                                                  . r s #+[@@.w -@}@%.&.S+T+L+) ! )@{ E 8+'.0+p+J &+!@V._@~.i.3 E+^.O P 8 9 0 :.<@}+[.m.%@V G+1.j k )+!+R+I...q q ..I.R+!+)+k j 1.G+V %@m.[.}+<@:.0 9 8 P O ^.E+3 i.~._@V.!@&+J p+0+'.8+E { )@! ) L+T+S+&.%.}@-@w @.[@#+s r .                                                                                                                                   ",
"                                                                                          q.                                      . j+4+#+r.|@1@* ;@/@(@> T+2@/+3@;.{ E n+/ o+a+q+&+w.} x.~.*+4@:@5 B.5@/.C.6@7@u+S T D.%@g |.|+j k Z i+2+I...q q ..I.2+i+Z k j |+|.g %@D.T S u+7@6@C./.5@B.5 :@4@*+~.x.} w.&+q+a+o+/ n+E { ;.3@/+2@T+> (@/@;@* 1@|@r.#+4+j+.                                       q.                                                                                          ",
"                                                                                                                                  8@+.@ # r.0.w 9@;@%.@@S+d.A 0@! ;.{ a@V+b@0+p+q+&+w.V.D+W.i.Y+E+5 c@=+/.C.0 a b <.d `.}.F.|.i j d@)+!+e@I.p f@f@p I.e@!+)+d@j i |.F.}.`.d <.b a 0 C./.=+c@5 E+Y+i.W.D+V.w.&+q+p+0+b@V+a@{ ;.! 0@A d.S+@@%.;@9@w 0.r.# @ +.8@                                                                                                                                  ",
"                                                                                                                                g@@+r 4+# r.h@i@-@x /@t.O.T+U+'@k+;.{ j@_+'.0+a+N+C+k@l@| W.N ].:@^.m@e+8 9 0 Q <@}+Z.D.}.g h 1.j k Z i+2+n@p o@o@p n@2+i+Z k j 1.h g }.D.Z.}+<@Q 0 9 8 e+m@^.:@].N W.| l@k@C+N+a+0+'._+j@{ ;.k+'@U+T+O.t./@x -@i@h@r.# 4+r @+g@                                                                                                                                ",
"                                                                                                                                p@@+j+4+# r.@.w q@= >@@@S+K+2@0@! ;.{ r@n+b@0+p+N+v.w.} D+y.*+4@:@^.B.s@8 9 0 7@<@<.d D.}.g W 1.Y k 3.m  .n@t@o@o@t@n@ .m 3.k Y 1.W g }.D.d <.<@7@0 9 8 s@B.^.:@4@*+y.D+} w.v.N+p+0+b@n+r@{ ;.! 0@2@K+S+@@>@= q@w @.r.# 4+j+@+p@                                                                                                                                ",
"                                                              q.                                                                u@@+j+@ # r.@.w v@;@%.@@> T+L+w@3@;.7+A+8+'.( x@J &+w.V._@W.:+4@y@5 O 7 8 C.z@f+<@S ;+e %@g W 1.j o.)+*@~+n@A@B@B@A@n@~+*@)+o.j 1.W g %@e ;+S <@f+z@C.8 7 O 5 y@4@:+W._@V.w.&+J x@( '.8+A+7+;.3@w@L+T+> @@%.;@v@w @.r.# @ j+@+u@                                                                q.                                                              ",
"                                                                                                    q.                          g@@+r @ #+r.|@w 9@b.%.&.S+T+L+w@! ;.{ m+8+'.0+a+J &+w.} D+W.z.C@j.^.O =+/.C.0 D@R }+d e f g |.1.j E@)+!+~+o t@o@o@t@o ~+!+)+E@j 1.|.g f e d }+R D@0 C./.=+O ^.j.C@z.W.D+} w.&+J a+0+'.8+m+{ ;.! w@L+T+S+&.%.b.9@w |@r.#+@ r @+g@                          q.                                                                                                    ",
"          q.                                                                                                                    F@8@r G@y+$ @.1@H@= /@,@O.K+L+0@! ;.I@E _+/ o+x@J C+w.} x.W.N A.:@^.<+k.8 9 _.Q ~@c d e %@V J@K@L@E@3.*@M@N@t@B@B@t@N@M@*@3.E@L@K@J@V %@e d c ~@Q _.9 8 k.<+^.:@A.N W.x.} w.C+J x@o+/ _+E I@;.! 0@L+K+O.,@/@= H@1@@.$ y+G@r 8@F@                                                                                                                    q.          ",
"                                                                                  q.                                            O@8@P@4+#+Q@@.w * }@R@&.S+T+U+) k+;.I@m+n+b@0+S@N+&+w.} x.y.X+T@t+^.O s@/.9 0 D@g+c d D.h+U@V@|+L@w+p.*@2+o W@B@B@W@o 2+*@p.w+L@|+V@U@h+D.d c g+D@0 9 /.s@O ^.t+T@X+y.x.} w.&+N+S@0+b@n+m+I@;.k+) U+T+S+&.R@}@* w @.Q@#+4+P@8@O@                                            q.                                                                                  "};
