/* XPM */
static char * dockmask2_xpm[] = {
"48 38 3 1",
" 	c None",
".	c #000000",
"+	c #010000",
"......                          ................",
"....                              ..............",
"...                                .............",
"+.                                  ............",
"+                                    ...........",
"+                                    ...........",
"                                      ..........",
"                                      ..........",
"                                      ..........",
"                                      ..........",
"                                      ..........",
"                                      ..........",
"                                      ..........",
"                                      ..........",
"                                      ..........",
"                                      ..........",
"                                      ..........",
"                                      ..........",
"                                      ..........",
"                                      ..........",
"                                      ..........",
"                                      ..........",
"                                      ..........",
"                                      ..........",
"                                      ..........",
"                                      ..........",
"                                      ..........",
"                                      ..........",
"                                      ..........",
"                                      ..........",
"                                      ..........",
"                                      ..........",
"+                                    ...........",
".                                    ...........",
"..                                  ............",
"...                                .............",
"....                              ..............",
"......                          ................"};
