/* XPM */
static char * dockmask_xpm[] = {
"38 38 3 1",
" 	c None",
".	c #000000",
"+	c #010000",
"......                          ......",
"....                              ....",
"...                                ...",
"+.                                  ..",
"+                                    .",
"+                                    .",
"                                      ",
"                                      ",
"                                      ",
"                                      ",
"                                      ",
"                                      ",
"                                      ",
"                                      ",
"                                      ",
"                                      ",
"                                      ",
"                                      ",
"                                      ",
"                                      ",
"                                      ",
"                                      ",
"                                      ",
"                                      ",
"                                      ",
"                                      ",
"                                      ",
"                                      ",
"                                      ",
"                                      ",
"                                      ",
"                                      ",
"+                                    .",
".                                    .",
"..                                  ..",
"...                                ...",
"....                              ....",
"......                          ......"};
