/* XPM */
static char * dockmask3_xpm[] = {
"48 5 2 1",
" 	c None",
".	c #000000",
"..                                  ............",
"                                      ..........",
"                                      ..........",
"                                      ..........",
"..                                  ............"};
