/* XPM */
static char * dockmask4_xpm[] = {
"43 5 2 1",
" 	c None",
".	c #000000",
"..                                  .......",
"                                      .....",
"                                      .....",
"                                      .....",
"..                                  ......."};
