/* XPM */
static char * dockmask5_xpm[] = {
"38 5 2 1",
" 	c None",
".	c #000000",
"..                                  ..",
"                                      ",
"                                      ",
"                                      ",
"..                                  .."};
